<svg width="2000" height="891" viewBox="0 0 2000 891" fill="none" xmlns="http://www.w3.org/2000/svg">
<path d="M721.515 0C717.176 19.3409 722.911 69.5731 727.955 88.3043C728.165 88.9478 729.086 90.4653 731.09 91.3866C733.595 92.5382 737.976 92.9108 741.104 92.7075C744.232 92.5043 764.888 97.0769 747.319 72.5875C728.746 46.9804 722.145 1.9307 721.515 0Z" fill="black"/>
<path d="M758.384 303.405C762.723 284.064 756.988 233.832 751.944 215.101C751.734 214.457 750.813 212.939 748.809 212.018C746.304 210.867 741.923 210.494 738.795 210.697C735.667 210.9 715.011 206.328 732.58 230.817C751.153 256.424 757.754 301.474 758.384 303.405Z" fill="black"/>
<path d="M620.178 242.411C639.231 236.943 680.559 207.82 694.576 194.41C695.04 193.918 695.93 192.382 695.778 190.181C695.587 187.431 693.813 183.408 692.134 180.761C690.456 178.114 684.562 157.795 671.498 184.957C657.936 213.535 621.57 240.932 620.178 242.411Z" fill="black"/>
<path d="M605.2 78.9047C618.231 93.8409 662.132 118.919 680.22 125.927C680.863 126.138 682.631 126.293 684.559 125.221C686.969 123.882 689.86 120.57 691.546 117.927C693.231 115.284 709.134 101.33 678.995 101.018C647.362 100.854 607.129 79.5386 605.2 78.9047Z" fill="black"/>
<path d="M874.194 220.311C860.875 205.631 816.494 181.412 798.273 174.757C797.626 174.558 795.855 174.438 793.948 175.546C791.565 176.932 788.739 180.3 787.105 182.975C785.471 185.65 769.843 199.911 799.982 199.637C831.613 199.186 872.253 219.715 874.194 220.311Z" fill="black"/>
<path d="M868.38 72.1681C848.667 74.2367 802.901 95.7235 786.764 106.489C786.221 106.894 785.078 108.251 784.845 110.444C784.555 113.186 785.601 117.456 786.794 120.355C787.986 123.254 790.254 144.289 807.845 119.815C826.174 94.0323 866.752 73.3817 868.38 72.1681Z" fill="black"/>
<path d="M223.421 639.867C92.1044 825.899 19.7584 884.567 0 890.646C25.8379 863.288 110.951 732.579 141.348 686.983C171.746 641.387 189.984 617.069 220.382 574.512C244.7 540.467 283.203 501.558 299.415 486.36C279.657 495.479 180.865 518.277 199.104 462.042C213.694 417.053 291.309 399.727 328.293 396.687C270.538 408.846 244.7 425.565 235.58 440.763C223.421 474.201 290.296 443.803 305.495 437.724C320.693 431.644 390.608 398.207 471.161 335.892C535.604 286.04 601.364 256.352 626.188 247.739C591.231 269.017 404.287 431.644 414.926 427.084C425.565 422.525 490.919 425.565 501.558 481.8C510.07 526.788 470.654 597.817 449.883 627.708C463.562 591.231 475.721 544.115 471.161 506.118C466.601 468.121 387.568 407.326 223.421 639.867Z" fill="black"/>
<path d="M354.131 340.452C354.131 362.277 336.439 379.969 314.614 379.969C292.79 379.969 275.097 362.277 275.097 340.452C275.097 318.628 292.79 300.935 314.614 300.935C336.439 300.935 354.131 318.628 354.131 340.452Z" fill="black"/>
<path d="M795.038 39.5162C773.151 46.8116 761.6 74.9799 758.561 88.1522C757.051 93.4604 767.923 100.496 773.619 103.351C775.531 104.31 782.879 107.911 781.359 98.7913C774.063 75.6892 787.438 49.6487 795.038 39.5162Z" fill="black"/>
<path d="M860.661 147.054C843.26 131.906 813.129 136.263 800.238 140.335C794.899 141.73 794.36 154.67 794.794 161.025C794.94 163.16 795.569 171.318 802.653 165.377C818.848 147.359 848.073 145.654 860.661 147.054Z" fill="black"/>
<path d="M803.193 261.693C809.551 239.516 792.849 214.062 783.703 204.107C780.179 199.86 768.228 204.85 762.653 207.933C760.781 208.969 753.657 212.993 762.038 216.895C785.217 223.941 799.133 249.696 803.193 261.693Z" fill="black"/>
<path d="M682.423 262.924C704.37 255.811 716.154 227.739 719.303 214.593C720.857 209.297 710.043 202.171 704.372 199.269C702.467 198.295 695.15 194.633 696.594 203.764C703.698 226.926 690.107 252.855 682.423 262.924Z" fill="black"/>
<path d="M618.589 150.86C634.056 167.976 664.492 167.249 677.777 164.745C683.245 163.998 685.325 151.215 685.653 144.853C685.763 142.716 686.112 134.541 678.37 139.594C660.139 155.549 630.92 153.752 618.589 150.86Z" fill="black"/>
<path d="M679.157 39.5169C672.545 61.6191 688.953 87.2638 697.984 97.3234C701.459 101.61 713.466 96.7588 719.076 93.7395C720.96 92.7256 728.13 88.7838 719.795 84.7851C696.698 77.4738 683.079 51.56 679.157 39.5169Z" fill="black"/>
<path d="M734.599 606.721V452.56H806.349V413.66H619.627V452.56H691.377V606.721H734.599Z" fill="black"/>
<path d="M866.221 609.602C898.206 609.602 918.376 596.059 925.004 573.583H927.309V606.721H967.65V522.004C967.65 484.257 944.886 459.476 896.765 459.476C849.22 459.476 819.252 484.257 819.252 519.987V520.852H862.763V519.699C862.763 503.275 871.696 497.512 893.595 497.512C916.647 497.512 925.004 502.698 925.004 521.428V526.903L863.051 533.242C832.219 536.412 816.371 549.667 816.371 570.99C816.371 595.195 835.101 609.602 866.221 609.602ZM859.882 568.108C859.882 561.193 864.492 558.311 874.866 557.447L925.004 551.684C923.851 572.143 908.003 579.058 878.611 579.058C865.933 579.058 859.882 575.888 859.882 568.108Z" fill="black"/>
<path d="M1091.28 606.721V567.82H1065.34C1050.07 567.82 1044.6 564.074 1044.6 549.667V498.088H1091.28V462.357H1044.6V434.407H1001.37V462.357H978.609V498.088H1001.37V554.565C1001.37 590.872 1021.83 606.721 1055.54 606.721H1091.28Z" fill="black"/>
<path d="M1150.69 606.721V534.395C1150.69 510.19 1159.62 498.376 1188.72 498.376C1215.81 498.376 1226.18 507.021 1226.18 531.225V606.721H1269.4V518.258C1269.4 484.833 1250.39 459.476 1211.49 459.476C1174.6 459.476 1157.6 481.951 1152.99 506.444H1150.69V413.66H1107.46V606.721H1150.69Z" fill="black"/>
<path d="M1398.7 606.721L1464.68 462.357H1417.43L1373.91 564.651H1371.03L1327.81 462.357H1279.69L1345.39 606.721H1398.7Z" fill="black"/>
<path d="M1520.47 609.602C1552.45 609.602 1572.62 596.059 1579.25 573.583H1581.56V606.721H1621.9V522.004C1621.9 484.257 1599.13 459.476 1551.01 459.476C1503.47 459.476 1473.5 484.257 1473.5 519.987V520.852H1517.01V519.699C1517.01 503.275 1525.94 497.512 1547.84 497.512C1570.89 497.512 1579.25 502.698 1579.25 521.428V526.903L1517.3 533.242C1486.47 536.412 1470.62 549.667 1470.62 570.99C1470.62 595.195 1489.35 609.602 1520.47 609.602ZM1514.13 568.108C1514.13 561.193 1518.74 558.311 1529.11 557.447L1579.25 551.684C1578.1 572.143 1562.25 579.058 1532.86 579.058C1520.18 579.058 1514.13 575.888 1514.13 568.108Z" fill="black"/>
<path d="M1701.12 490.884C1718.98 490.884 1729.36 482.24 1729.36 464.086V413.66H1690.17V458.323H1707.46V464.374C1707.46 470.425 1705.15 471.866 1700.25 471.866H1690.75V490.884H1701.12Z" fill="black"/>
<path d="M1909.53 606.721V578.77H1826.84L1780.15 581.94C1780.15 560.04 1789.09 550.819 1815.02 541.887L1855.65 529.496C1889.65 519.123 1910.11 502.41 1910.11 470.714C1910.11 436.712 1887.06 410.778 1832.31 410.778C1772.09 410.778 1747.59 443.051 1747.59 478.782V481.663H1778.14V478.206C1778.14 452.848 1792.55 439.305 1831.16 439.305C1865.74 439.305 1878.99 449.679 1878.99 470.137C1878.99 487.138 1870.92 494.918 1847.87 503.275L1801.77 519.123C1762 532.666 1747.88 550.531 1747.88 586.262V606.721H1909.53Z" fill="black"/>
<path d="M2000 606.721V413.66H1972.63C1964.27 432.102 1952.17 437.576 1930.84 437.576H1921.62V459.764H1968.88V606.721H2000Z" fill="black"/>
<path d="M720.113 860.225H734.783V728.567H721.764V839.321L645.666 728.567H630.446V860.225H643.282V748.004L720.113 860.225Z" fill="black"/>
<path d="M778.323 860.225V728.567H764.57V860.225H778.323Z" fill="black"/>
<path d="M854.66 860.225V740.852H898.852V728.567H796.899V740.852H841.091V860.225H854.66Z" fill="black"/>
<path d="M1012.48 862.976C1043.84 862.976 1069.69 841.705 1074.83 810.349H1060.34C1056.31 833.82 1036.87 850.69 1012.48 850.69C983.327 850.69 962.24 826.852 962.24 794.213C962.24 761.94 983.327 738.102 1012.48 738.102C1036.69 738.102 1056.12 754.788 1060.34 778.259H1074.83C1069.69 746.904 1043.84 725.816 1012.48 725.816C975.809 725.816 948.12 755.522 948.12 794.213C948.12 833.087 975.809 862.976 1012.48 862.976Z" fill="black"/>
<path d="M1155.6 860.225H1166.6V797.33C1166.6 774.959 1153.4 761.756 1130.84 761.756C1108.84 761.756 1093.99 776.059 1093.44 797.513H1105.17C1105.36 781.744 1115.26 772.025 1131.03 772.025C1145.7 772.025 1154.32 781.56 1154.32 797.697V805.765C1144.78 805.031 1140.38 804.665 1134.51 804.665C1105.17 804.665 1090.14 814.566 1090.14 833.453C1090.14 850.873 1103.16 862.059 1123.14 862.059C1138.18 862.059 1149.91 854.724 1155.6 842.622V860.225ZM1102.42 833.087C1102.42 819.701 1113.06 813.283 1135.06 813.283C1140.38 813.283 1146.06 813.466 1154.32 814.2V822.818C1154.32 840.972 1142.95 852.707 1124.98 852.707C1111.41 852.707 1102.42 844.822 1102.42 833.087Z" fill="black"/>
<path d="M1206.44 860.225V728.567H1193.6V860.225H1206.44Z" fill="black"/>
<path d="M1250.94 741.219C1250.94 735.718 1246.72 731.684 1240.49 731.684C1234.43 731.684 1230.22 735.718 1230.22 741.219C1230.22 746.904 1234.43 750.938 1240.49 750.938C1246.72 750.938 1250.94 746.904 1250.94 741.219ZM1247.09 860.225V763.59H1234.25V860.225H1247.09Z" fill="black"/>
<path d="M1311.02 862.242C1333.76 862.242 1350.08 847.389 1353.56 822.818H1340.55C1337.61 840.788 1326.79 851.057 1311.02 851.057C1293.05 851.057 1280.77 835.287 1280.77 811.816C1280.77 788.712 1293.05 772.942 1311.02 772.942C1326.61 772.942 1337.61 783.394 1340.55 800.997H1353.56C1349.71 776.793 1333.58 761.756 1311.02 761.756C1285.72 761.756 1267.75 782.477 1267.75 811.816C1267.75 841.522 1285.54 862.242 1311.02 862.242Z" fill="black"/>
<path d="M1436.08 821.168C1436.08 838.404 1424.89 850.873 1409.49 850.873C1395.92 850.873 1386.2 843.355 1386.2 823.735V763.59H1373.37V826.485C1373.37 850.873 1386.39 862.059 1406.01 862.059C1420.13 862.059 1431.86 853.991 1436.81 842.805V860.225H1448.73V763.59H1436.08V821.168Z" fill="black"/>
<path d="M1526.23 847.939C1522.19 849.59 1518.89 850.323 1514.86 850.323C1504.22 850.323 1496.89 845.189 1496.89 830.153V774.409H1527.14V763.59H1496.89V734.985H1484.05V763.59H1461.31V774.409H1484.05V832.903C1484.05 853.807 1496.34 862.059 1512.29 862.059C1517.06 862.059 1521.28 861.325 1526.23 859.308V847.939Z" fill="black"/>
</svg>
