<svg xmlns="http://www.w3.org/2000/svg" viewBox="0 0 750 500"><g id="freepik--background-complete--inject-18"><path d="M99.11,325.06,86,325.33l-6.66.12c-2.22,0-4.46,0-6.69.05h-.44v-.44l-.05-11.19v-.51h.5l13.24.06c4.41,0,8.83.11,13.24.16h.28v.27c0,1.89-.08,3.78-.13,5.65Zm0,0L99,319.4c0-1.86-.11-3.7-.13-5.53l.27.27c-4.41.05-8.83.16-13.24.16l-13.24.06.5-.49-.06,11.19-.44-.45c2.18,0,4.36,0,6.54.05l6.58.12Z" style="fill:#ebebeb"></path><path d="M84.34,339.17l-13.13.27-6.66.12c-2.22,0-4.46,0-6.69.05h-.45v-.44l0-11.19v-.51h.5l13.24.06c4.41,0,8.82.11,13.24.16h.27V328c0,1.89-.08,3.78-.13,5.65Zm0,0-.14-5.66c0-1.86-.12-3.7-.13-5.53l.27.27c-4.42.05-8.83.16-13.24.16l-13.24.06.5-.49-.06,11.19-.44-.45c2.18,0,4.36,0,6.54,0l6.58.12Z" style="fill:#ebebeb"></path><path d="M538.54,194.69l-13.13.28-6.66.11c-2.22,0-4.46,0-6.69.06h-.45v-.45l-.05-11.19V183h.51l13.24.06c4.41,0,8.82.12,13.24.17h.27v.27c0,1.9-.09,3.79-.13,5.65Zm0,0L538.4,189c0-1.87-.12-3.71-.14-5.54l.28.27c-4.42,0-8.83.16-13.24.17l-13.24.06.5-.5-.06,11.19-.44-.45c2.18,0,4.35,0,6.54.06l6.58.11Z" style="fill:#ebebeb"></path><path d="M523.77,208.8l-13.13.28-6.66.11c-2.23.05-4.46,0-6.69.05h-.45v-.45l0-11.19v-.5h.51l13.24.06c4.41,0,8.82.12,13.24.17H524v.27c0,1.9-.09,3.79-.13,5.65Zm0,0-.15-5.65c0-1.87-.11-3.71-.13-5.54l.28.27c-4.42.05-8.83.16-13.24.17l-13.24.06.49-.5,0,11.19-.44-.45c2.18,0,4.35,0,6.54.06l6.58.11Z" style="fill:#ebebeb"></path><path d="M509.05,194.69l-13.12.28-6.66.11c-2.23,0-4.47,0-6.7.06h-.44v-.45l-.06-11.19V183h.5l13.24.06c4.42,0,8.83.12,13.24.17h.28v.27c0,1.9-.08,3.79-.13,5.65Zm0,0-.14-5.65c-.05-1.87-.11-3.71-.13-5.54l.27.27c-4.41,0-8.82.16-13.24.17l-13.24.06.5-.5L483,194.69l-.45-.45c2.18,0,4.36,0,6.55.06l6.58.11Z" style="fill:#ebebeb"></path><path d="M692.14,339.17l-13.12.27-6.66.12c-2.23,0-4.47,0-6.7.05h-.44v-.44L665.16,328v-.51h.5l13.24.06c4.42,0,8.83.11,13.24.16h.28V328c0,1.89-.09,3.78-.14,5.65Zm0,0-.14-5.66c0-1.86-.11-3.7-.13-5.53l.27.27c-4.41.05-8.82.16-13.24.16l-13.24.06.5-.49,0,11.19-.45-.45c2.18,0,4.36,0,6.55,0l6.58.12Z" style="fill:#ebebeb"></path><path d="M677.37,65.49l-13.12.27-6.67.12c-2.22,0-4.46,0-6.69.05h-.44v-.45l-.05-11.19v-.51h.5l13.24.06c4.41,0,8.83.11,13.24.16h.28v.27c0,1.9-.08,3.78-.13,5.65Zm0,0-.14-5.66c-.05-1.86-.11-3.7-.13-5.53l.27.27c-4.41,0-8.83.16-13.24.16l-13.24.07.5-.5,0,11.19-.45-.45c2.18,0,4.36,0,6.55.06l6.58.11Z" style="fill:#ebebeb"></path><path d="M692.14,79.6,679,79.87l-6.66.12c-2.23,0-4.47,0-6.7.05h-.44V79.6l-.06-11.19V67.9h.5L678.9,68c4.42,0,8.83.11,13.24.16h.28v.27c0,1.9-.09,3.78-.14,5.65Zm0,0L692,73.94c0-1.86-.11-3.7-.13-5.53l.27.27c-4.41,0-8.82.16-13.24.16l-13.24.07.5-.5,0,11.19-.45-.45c2.18,0,4.36,0,6.55.06l6.58.11Z" style="fill:#ebebeb"></path><path d="M99.11,65.49,86,65.76l-6.66.12c-2.22,0-4.46,0-6.69.05h-.44v-.45L72.13,54.3v-.51h.5l13.24.06c4.41,0,8.83.11,13.24.16h.28v.27c0,1.9-.08,3.78-.13,5.65Zm0,0L99,59.83c0-1.86-.11-3.7-.13-5.53l.27.27c-4.41,0-8.83.16-13.24.16l-13.24.07.5-.5-.06,11.19L72.63,65c2.18,0,4.36,0,6.54.06l6.58.11Z" style="fill:#ebebeb"></path><rect x="68.29" y="93.23" width="59.11" height="38.59" style="fill:#dbdbdb"></rect><rect x="68.29" y="134.09" width="59.11" height="38.59" style="fill:#ebebeb"></rect><rect x="74.14" y="141.51" width="5.75" height="5.75" style="fill:#fff"></rect><rect x="81.08" y="141.51" width="5.75" height="5.75" style="fill:#c7c7c7"></rect><rect x="88.03" y="141.51" width="5.75" height="5.75" style="fill:#fff"></rect><rect x="94.97" y="141.51" width="5.75" height="5.75" style="fill:#fff"></rect><rect x="101.92" y="141.51" width="5.75" height="5.75" style="fill:#fff"></rect><rect x="108.86" y="141.51" width="5.75" height="5.75" style="fill:#fff"></rect><rect x="115.8" y="141.51" width="5.75" height="5.75" style="fill:#fff"></rect><rect x="74.14" y="148.5" width="5.75" height="5.75" style="fill:#fff"></rect><rect x="81.08" y="148.5" width="5.75" height="5.75" style="fill:#fff"></rect><rect x="88.03" y="148.5" width="5.75" height="5.75" style="fill:#fff"></rect><rect x="94.97" y="148.5" width="5.75" height="5.75" style="fill:#fff"></rect><rect x="101.92" y="148.5" width="5.75" height="5.75" style="fill:#c7c7c7"></rect><rect x="108.86" y="148.5" width="5.75" height="5.75" style="fill:#fff"></rect><rect x="115.8" y="148.5" width="5.75" height="5.75" style="fill:#fff"></rect><rect x="74.14" y="155.49" width="5.75" height="5.75" style="fill:#fff"></rect><rect x="81.08" y="155.49" width="5.75" height="5.75" style="fill:#fff"></rect><rect x="88.03" y="155.49" width="5.75" height="5.75" style="fill:#fff"></rect><rect x="94.97" y="155.49" width="5.75" height="5.75" style="fill:#fff"></rect><rect x="101.92" y="155.49" width="5.75" height="5.75" style="fill:#fff"></rect><rect x="108.86" y="155.49" width="5.75" height="5.75" style="fill:#fff"></rect><rect x="115.8" y="155.49" width="5.75" height="5.75" style="fill:#fff"></rect><rect x="74.14" y="162.49" width="5.75" height="5.75" style="fill:#fff"></rect><rect x="81.08" y="162.49" width="5.75" height="5.75" style="fill:#fff"></rect><rect x="88.03" y="162.49" width="5.75" height="5.75" style="fill:#c7c7c7"></rect><rect x="94.97" y="162.49" width="5.75" height="5.75" style="fill:#fff"></rect><rect x="101.92" y="162.49" width="5.75" height="5.75" style="fill:#fff"></rect><rect x="108.86" y="162.49" width="5.75" height="5.75" style="fill:#fff"></rect><rect x="115.8" y="162.49" width="5.75" height="5.75" style="fill:#fff"></rect><rect x="70.61" y="129.99" width="2.24" height="5.93" style="fill:#c7c7c7"></rect><rect x="75.83" y="129.99" width="2.24" height="5.93" style="fill:#c7c7c7"></rect><rect x="81.05" y="129.99" width="2.24" height="5.93" style="fill:#c7c7c7"></rect><rect x="86.28" y="129.99" width="2.24" height="5.93" style="fill:#c7c7c7"></rect><rect x="91.5" y="129.99" width="2.24" height="5.93" style="fill:#c7c7c7"></rect><rect x="96.72" y="129.99" width="2.24" height="5.93" style="fill:#c7c7c7"></rect><rect x="101.95" y="129.99" width="2.24" height="5.93" style="fill:#c7c7c7"></rect><rect x="107.17" y="129.99" width="2.24" height="5.93" style="fill:#c7c7c7"></rect><rect x="112.39" y="129.99" width="2.24" height="5.93" style="fill:#c7c7c7"></rect><rect x="117.62" y="129.99" width="2.24" height="5.93" style="fill:#c7c7c7"></rect><rect x="122.84" y="129.99" width="2.24" height="5.93" style="fill:#c7c7c7"></rect><circle cx="97.84" cy="97.18" r="0.94" style="fill:#263238"></circle><rect x="522" y="70.62" width="54.52" height="72.13" transform="translate(655.95 -442.57) rotate(90)" style="fill:#ebebeb"></rect><rect x="527.9" y="76.35" width="42.71" height="60.69" transform="translate(655.95 -442.57) rotate(90)" style="fill:#fff"></rect><rect x="535.23" y="86.76" width="28.05" height="39.86" transform="translate(655.95 -442.57) rotate(90)" style="fill:#ebebeb"></rect><rect x="585.32" y="79.43" width="1.64" height="54.52" style="fill:#dbdbdb"></rect><rect x="518.91" y="85.34" width="1.64" height="42.71" style="fill:#dbdbdb"></rect><path d="M570.64,117.54a5,5,0,1,1-5-5A5,5,0,0,1,570.64,117.54Z" style="fill:#c7c7c7"></path><rect x="609.69" y="116.89" width="54.52" height="72.13" transform="translate(789.91 -483.99) rotate(90)" style="fill:#ebebeb"></rect><rect x="615.59" y="122.62" width="42.71" height="60.69" transform="translate(789.91 -483.99) rotate(90)" style="fill:#fff"></rect><rect x="673.01" y="125.7" width="1.64" height="54.52" style="fill:#dbdbdb"></rect><rect x="606.6" y="131.61" width="1.64" height="42.71" style="fill:#dbdbdb"></rect><rect x="636.55" y="118.39" width="0.8" height="39.86" transform="translate(775.27 -498.63) rotate(90)" style="fill:#ebebeb"></rect><rect x="636.55" y="135.93" width="0.8" height="39.86" transform="translate(792.81 -481.08) rotate(90)" style="fill:#ebebeb"></rect><rect x="636.55" y="128.78" width="0.8" height="24.13" transform="translate(777.8 -496.1) rotate(90)" style="fill:#ebebeb"></rect><rect x="636.55" y="150.68" width="0.8" height="24.13" transform="translate(799.7 -474.2) rotate(90)" style="fill:#ebebeb"></rect><rect x="636.55" y="155.3" width="0.8" height="19.3" transform="translate(801.9 -472) rotate(90)" style="fill:#ebebeb"></rect><path d="M659.21,163.61a4.39,4.39,0,1,1-4.39-4.39A4.39,4.39,0,0,1,659.21,163.61Z" style="fill:#c7c7c7"></path><rect x="618.37" y="146.33" width="37.16" height="4.57" style="fill:#ebebeb"></rect><path d="M292.56,53.71H457.44v215.5H292.56Zm160.53,4.35H296.91v206.8H453.09Z" style="fill:#ebebeb"></path><rect x="374.52" y="59.19" width="4.35" height="207.84" style="fill:#ebebeb"></rect><rect x="288.62" y="62.5" width="172.77" height="6.05" transform="translate(750 131.05) rotate(180)" style="fill:#ebebeb"></rect><rect x="288.62" y="69.31" width="172.77" height="6.05" transform="translate(750 144.67) rotate(180)" style="fill:#ebebeb"></rect><rect x="288.62" y="76.12" width="172.77" height="6.05" transform="translate(750 158.3) rotate(180)" style="fill:#ebebeb"></rect><rect x="288.62" y="82.93" width="172.77" height="6.05" transform="translate(750 171.92) rotate(180)" style="fill:#ebebeb"></rect><rect x="288.62" y="89.74" width="172.77" height="6.05" transform="translate(750 185.54) rotate(180)" style="fill:#ebebeb"></rect><rect x="288.62" y="96.55" width="172.77" height="6.05" transform="translate(750 199.16) rotate(180)" style="fill:#ebebeb"></rect><rect x="288.62" y="103.37" width="172.77" height="6.05" transform="translate(750 212.78) rotate(180)" style="fill:#ebebeb"></rect><rect x="288.62" y="110.18" width="172.77" height="6.05" transform="translate(750 226.41) rotate(180)" style="fill:#ebebeb"></rect><rect x="288.62" y="116.99" width="172.77" height="6.05" transform="translate(750 240.03) rotate(180)" style="fill:#ebebeb"></rect><rect x="301.53" y="61.27" width="1.09" height="139.55" style="fill:#263238"></rect><polygon points="300.14 205.88 304 205.88 303.03 200.34 301.11 200.34 300.14 205.88" style="fill:#263238"></polygon><rect x="297.61" y="61.27" width="1.09" height="201.88" style="fill:#263238"></rect><polygon points="296.23 267.23 300.08 267.23 299.12 261.68 297.19 261.68 296.23 267.23" style="fill:#263238"></polygon><rect x="281.87" y="52.86" width="186.26" height="12.67" transform="translate(750 118.38) rotate(180)" style="fill:#dbdbdb"></rect></g><g id="freepik--Shadow--inject-18"><ellipse cx="375" cy="434.45" rx="322.3" ry="19.48" style="fill:#ebebeb"></ellipse></g><g id="freepik--Floor--inject-18"><polygon points="54.95 369.32 134.97 369.08 214.98 368.99 375 368.82 535.02 368.99 615.03 369.08 695.05 369.32 615.03 369.57 535.02 369.66 375 369.82 214.98 369.65 134.97 369.57 54.95 369.32" style="fill:#263238"></polygon></g><g id="freepik--character-1--inject-18"><polygon points="145.66 320.96 147.79 333.72 162.2 411.55 164.53 411.55 154.05 333.72 152.5 320.96 145.66 320.96" style="fill:#dbdbdb"></polygon><polygon points="152.5 320.96 145.66 320.96 147.79 333.72 154.05 333.72 152.5 320.96" style="fill:#c7c7c7"></polygon><polygon points="100.41 411.55 102.73 411.55 117.14 333.72 119.27 320.96 112.44 320.96 110.89 333.72 100.41 411.55" style="fill:#dbdbdb"></polygon><polygon points="112.44 320.96 110.89 333.72 117.14 333.72 119.27 320.96 112.44 320.96" style="fill:#c7c7c7"></polygon><polygon points="57.18 411.55 59.5 411.55 73.91 333.72 76.04 320.96 69.21 320.96 67.66 333.72 57.18 411.55" style="fill:#dbdbdb"></polygon><polygon points="67.66 333.72 73.91 333.72 76.04 320.96 69.21 320.96 67.66 333.72" style="fill:#c7c7c7"></polygon><polygon points="60.86 326.96 166.47 326.96 166.47 315.83 126.94 315.83 113.65 238.53 64.89 238.53 60.86 326.96" style="fill:#dbdbdb"></polygon><polygon points="60.86 326.96 66.62 326.96 70.37 238.53 64.89 238.53 60.86 326.96" style="fill:#c7c7c7"></polygon><path d="M170.44,425.19c-2.1.26-59.42-13.11-61.28-14.91-.22-.2,2.49-11.21,2.49-11.21.9-4.53,15.82-41.49,15.82-41.49l37.47,9.24-15.88,34.26s7.15,4.84,13.29,9.45c0,0,0,0,0,0a82.82,82.82,0,0,1,7.77,6.21C172,418.94,172.54,424.94,170.44,425.19Z" style="fill:#ad6359"></path><path d="M170.44,425.19c-2.1.26-59.41-13.11-61.28-14.91-.22-.2,2.49-11.21,2.49-11.21.3-1.49,2.11-6.48,4.41-12.53l35.87,8.36-2.87,6.18s7.15,4.84,13.29,9.45v0a83.12,83.12,0,0,1,7.77,6.21C172,418.94,172.54,424.94,170.44,425.19Z" style="fill:#ebebeb"></path><path d="M170.6,425.35c-2.17.23-59.94-12.72-61.83-14.61-.73-.71,4.4-19.32,4.42-19.42l37,8.16-.15.63s18.58,14.25,20.43,16.54S172.77,425.13,170.6,425.35Z" style="fill:#a6a6a6"></path><path d="M170.45,423c-9.68-2.42-49-11.28-58.74-12.94-.08,0-.09,0,0,.06,9.55,2.61,48.91,11.15,58.72,13C170.62,423.17,170.66,423,170.45,423Z" style="fill:#263238"></path><path d="M153,399.93c-3.68-1.57-8.49-2-12,0-.13.08,0,.28.12.27a54.69,54.69,0,0,1,11.79.18A.25.25,0,0,0,153,399.93Z" style="fill:#263238"></path><path d="M155.38,402.21c-3.67-1.57-8.49-2-12,0-.14.08,0,.27.11.26a56,56,0,0,1,11.79.18A.25.25,0,0,0,155.38,402.21Z" style="fill:#263238"></path><path d="M157.77,404.5c-3.67-1.57-8.49-2-12,0-.14.08,0,.28.11.27a54.78,54.78,0,0,1,11.8.18A.25.25,0,0,0,157.77,404.5Z" style="fill:#263238"></path><path d="M159.85,392.7c-1-2.41-4.06-2.11-6-1.12A20.91,20.91,0,0,0,146,399c-.05.07,0,.13.06.16a.48.48,0,0,0,.49.61c3.43-.46,7.15-.53,10.33-2C158.76,396.89,160.83,395,159.85,392.7ZM151.62,398c-1.68.27-3.36.45-5,.78a62.72,62.72,0,0,1,4.69-4.24,22.71,22.71,0,0,1,2.53-1.74c1.37-.78,6.38-2,4.76,2.07C157.68,397.14,153.63,397.71,151.62,398Z" style="fill:#263238"></path><path d="M136.5,395.84c2.86,2.05,6.5,2.8,9.79,3.87.34.12.6-.21.6-.51a.11.11,0,0,0,.09-.14,21,21,0,0,0-6.39-8.76c-1.69-1.31-4.59-2.16-6.06,0S134.83,394.64,136.5,395.84Zm-1.12-3.12c-.85-4.27,3.86-2.19,5.07-1.17a22.13,22.13,0,0,1,2.16,2.17,60.7,60.7,0,0,1,3.84,5c-1.58-.63-3.2-1.12-4.81-1.69C139.73,396.38,135.85,395.08,135.38,392.72Z" style="fill:#263238"></path><path d="M152,399.8l-40-8.95s33-76.49,30.05-80.36c-1.46-1.93-38.49-2.5-50.27-12.48-15.3-13-5-32.76-5-32.76L128.12,264s-.5,8.64,1.12,9.94c1.06.87,50.34,5,55.75,21.62C191.63,315.94,152,399.8,152,399.8Z" style="fill:#263238"></path><path d="M153.14,392.56c-1.06-.44-11.38-3.37-13.69-4-4.66-1.19-9.32-2.36-14-3.46-2.43-.57-7.66-1.81-8-1.79a.13.13,0,0,0,0,.26c4.56,1.42,9.17,2.66,13.78,3.92s20.44,5.12,21.82,5.27C153.18,392.82,153.29,392.63,153.14,392.56Z" style="fill:#37474f"></path><path d="M149.14,307.07a6.26,6.26,0,0,0-3.12-1q-9-1.5-17.91-3c-5.58-.94-11.2-1.77-16.76-2.85-4.6-.88-9.29-2.08-13.27-4.58A19.18,19.18,0,0,1,90,285a34.26,34.26,0,0,1-1-13.63c.1-1.11.31-2.22.51-3.32,0-.08-.11-.11-.13,0-1.51,8.47-1.65,18.3,4.7,25.05,3.1,3.29,7.35,5.22,11.69,6.47a132,132,0,0,0,15,2.92l17.91,3c2.87.48,5.79.85,8.64,1.45a2.85,2.85,0,0,1,1.55.69,2.19,2.19,0,0,1,.25,2.06c-.28,1.41-.66,2.8-1.07,4.18-3.26,11.12-25.25,64.17-25.89,65.4-.07.12.13.22.2.1,5.48-9.76,21.41-50.73,25-61.25a65.32,65.32,0,0,0,2.35-8.19C149.9,308.94,150,307.81,149.14,307.07Z" style="fill:#37474f"></path><path d="M248.5,425.8c-2,.68-59.37-.13-61.56-1.53-.84-.8-1.52-8.14-2-17.27L175,367.88l36.9-.31,10.8,38.86s8,3.32,14.9,6.61l0,0a84.75,84.75,0,0,1,8.85,4.54C248.73,419.38,250.5,425.14,248.5,425.8Z" style="fill:#ad6359"></path><path d="M249.67,425.84c-2.07.69-61.28.41-63.53-1-.86-.53-1.32-9.15-1.58-19.58,0-.11,0-.22,0-.32l38.21-.25,0,.65s22.62,10.23,24.92,12.08S251.75,425.17,249.67,425.84Z" style="fill:#a6a6a6"></path><path d="M249,423.55c-10-.29-50.26-.54-60.15-.07-.08,0-.08.06,0,.07,9.89.5,50.17.42,60.15.16C249.22,423.71,249.23,423.55,249,423.55Z" style="fill:#263238"></path><path d="M227,404.78c-3.92-.75-8.73-.17-11.75,2.61-.11.11,0,.27.17.23A55.4,55.4,0,0,1,227,405.28.25.25,0,0,0,227,404.78Z" style="fill:#263238"></path><path d="M229.84,406.5c-3.93-.75-8.73-.17-11.75,2.61-.12.11,0,.27.17.23A55.4,55.4,0,0,1,229.82,407,.25.25,0,0,0,229.84,406.5Z" style="fill:#263238"></path><path d="M232.66,408.22c-3.92-.75-8.73-.17-11.74,2.61-.12.11,0,.27.16.23a55.62,55.62,0,0,1,11.57-2.34A.25.25,0,0,0,232.66,408.22Z" style="fill:#263238"></path><path d="M232.16,396.25c-1.53-2.13-4.41-1.19-6.06.18a20.92,20.92,0,0,0-6.09,9,.1.1,0,0,0,.09.14.49.49,0,0,0,.61.49c3.25-1.18,6.87-2,9.66-4.19C232,400.58,233.61,398.27,232.16,396.25Zm-6.89,7c-1.58.62-3.19,1.16-4.75,1.84,1.2-1.74,2.31-3.53,3.68-5.15a22.16,22.16,0,0,1,2.09-2.24c1.17-1.05,5.81-3.29,5.1,1C231,401.05,227.16,402.48,225.27,403.22Z" style="fill:#263238"></path><path d="M210,404.31c3.23,1.4,6.95,1.35,10.39,1.7a.5.5,0,0,0,.48-.63.1.1,0,0,0,0-.16,20.91,20.91,0,0,0-8.11-7.19c-1.93-.92-5-1.13-5.92,1.32S208.14,403.5,210,404.31Zm-1.76-2.8c-1.75-4,3.3-3,4.69-2.23a21.71,21.71,0,0,1,2.58,1.65,61.12,61.12,0,0,1,4.83,4.1c-1.68-.28-3.37-.41-5.05-.62C213.3,404.16,209.23,403.71,208.27,401.51Z" style="fill:#263238"></path><path d="M226.36,405.06l-43.06,0s-18.43-73.12-21.69-77.29c-4.35-5.55-65.2-5.43-78.26-23.54-11.72-16.27-1.82-39.29-1.82-39.29l46.08-1.37a95.33,95.33,0,0,1-4.27,14.5s55.51,10.23,71.06,27.23C204.9,316.75,226.36,405.06,226.36,405.06Z" style="fill:#263238"></path><path d="M131.38,274.88a22.25,22.25,0,0,0-3.91,1.25c-1.32.51-2.63,1.08-3.9,1.7a75.73,75.73,0,0,0-7.29,4.12c-.07,0,0,.15.07.11,2.5-1.3,5.07-2.46,7.65-3.57l3.72-1.6c1.25-.54,2.58-1,3.77-1.66C131.65,275.14,131.56,274.85,131.38,274.88Z" style="fill:#37474f"></path><path d="M128.61,263.52c-.52,2.1-1,4.22-1.59,6.3-.27,1-.55,1.93-.91,2.86-.3.78-.77,1.67-1.67,1.85s-1.34-.7-1.26-1.56.34-1.92.53-2.87.44-2.18.64-3.27l.3-1.65c0-.14.12-1.18.2-1.48,0,0,0,.05.06,0h0a.11.11,0,0,0,.07-.06.13.13,0,0,0-.06-.16.07.07,0,0,0-.09,0c-.2.11-.22.38-.28.58-.17.53-.34,1.06-.5,1.6-.29,1-.57,2-.83,3l-.75,3a4.74,4.74,0,0,0-.21,2.33,1.79,1.79,0,0,0,1.66,1.34,2.12,2.12,0,0,0-.11.21c-.1.21-.16.43-.24.64s-.15.43-.22.66a1.65,1.65,0,0,0-.06.32c0,.12,0,.24,0,.36s.23.31.32.12.14-.19.2-.29a1.61,1.61,0,0,0,.15-.36c.07-.21.13-.42.19-.63s.12-.43.16-.64,0-.26,0-.39a2.41,2.41,0,0,0,1.22-.46,4.08,4.08,0,0,0,1.25-1.92c.32-.87.57-1.78.81-2.68a38.89,38.89,0,0,0,1.34-6.76A.2.2,0,0,0,128.61,263.52Z" style="fill:#37474f"></path><path d="M221.91,397.35a33.29,33.29,0,0,0-3.46-.21c-1.21-.05-2.42-.11-3.63-.14-2.39-.07-4.77-.12-7.16-.13-4.8,0-9.61,0-14.41.07-2.51,0-7.88.1-8.18.2a.13.13,0,0,0,0,.25c4.77.25,9.54.33,14.32.41s9.54.17,14.31.08c1.32,0,2.64-.07,4-.1a41.62,41.62,0,0,0,4.18-.18C222,397.58,222.07,397.37,221.91,397.35Z" style="fill:#37474f"></path><path d="M166.62,328.35a12.86,12.86,0,0,0-1.79-3.71,6.59,6.59,0,0,0-3.53-1.81c-11.48-3.14-23.33-4.56-35-6.76a144.89,144.89,0,0,1-17-4.15,66,66,0,0,1-16.11-7.25,18,18,0,0,1-5.93-6.26,27.14,27.14,0,0,1-2.78-7.82,47.59,47.59,0,0,1,0-18.91,42.48,42.48,0,0,1,1.18-4.6c0-.1-.12-.13-.15,0a46,46,0,0,0-2.59,18.79c.41,5.54,1.76,11.36,5.33,15.76a22.23,22.23,0,0,0,6.63,5.2,69.69,69.69,0,0,0,8.11,3.82,107.57,107.57,0,0,0,16.73,5c11.65,2.57,23.53,3.88,35.17,6.47,1.44.32,2.87.66,4.3,1a15.17,15.17,0,0,1,4.23,1.36c1.38.86,1.83,2.58,2.38,4S185.12,393.4,185.54,395a.2.2,0,0,0,.39-.12C184.3,388.4,167.84,331.46,166.62,328.35Z" style="fill:#37474f"></path><path d="M163.23,330c-.44-1.38-.82-2.87-2.11-3.71s-19.71-3.3-21.79-3.62c-.09,0-.13.13,0,.14,1.77.3,18.79,3.35,20.31,3.86a3.31,3.31,0,0,1,1.66,1.07,7.46,7.46,0,0,1,1,2.31q.8,2.48,1.57,4.95c1.05,3.3,2.1,6.61,3.1,9.94,1.13,3.77,2.42,7.72,3.4,11.53.07.29.49.15.44-.13C169.45,349.21,163.77,331.75,163.23,330Z" style="fill:#37474f"></path><path d="M123.56,278.15a156.16,156.16,0,0,1,25.14,5.15A175.59,175.59,0,0,1,173,292.08c4.41,2,8.67,4.19,12.91,6.51.08.05,0,.17-.08.13a199,199,0,0,0-23.59-10.29,190.62,190.62,0,0,0-24.57-7.12c-4.69-1-9.42-1.82-14.16-2.6C123.16,278.66,123.24,278.12,123.56,278.15Z" style="fill:#37474f"></path><path d="M124.3,224.92c5.88,8.88,27.75,37,38.38,37.12,7,.09,33.06-9.72,37-12,3.05-1.76-6.16-25.27-9.6-23.76s-24.48,8.78-27.29,8.55-27.4-19.08-36-23.25C111.94,204.4,121.14,220.14,124.3,224.92Z" style="fill:#ad6359"></path><path d="M196.24,251.49c2.89-1,18.61-6.06,21.84-8.42s12-9.85,10.49-12.51-4.32-.68-4.32-.68,3.22-3.74,1.41-6.28-6,.69-6,.69,3-4.09,1-6.49-5.66,1.55-5.66,1.55,3-3.61.47-4.89c-3-1.55-7.64,5.72-11.41,8.06-.85.54-18.1,9.56-18.1,9.56Z" style="fill:#ad6359"></path><path d="M215.36,219c-3.44,5.34-5.88,7.08-11.55,9.71-.11.05-.06.23.06.19,5.79-2.08,9.16-3.82,11.76-9.74C215.76,218.89,215.53,218.77,215.36,219Z" style="fill:#263238"></path><path d="M219.93,223.86c-4.07,5.24-6.69,7.15-12.43,10.34-.08,0,0,.19.07.15,5.9-2.66,9.21-4.48,12.59-10.24C220.31,223.85,220.11,223.63,219.93,223.86Z" style="fill:#263238"></path><path d="M224,230c-4.31,4.78-7.09,7-13.06,9.38a.12.12,0,0,0,.07.23c6.33-1.84,9.82-4.59,13.12-9.47C224.31,229.85,224.23,229.74,224,230Z" style="fill:#263238"></path><path d="M181,231.1s3.94-6.92,6.34-9.58,15-9.28,16.58-6.64c2,3.41-4.47,8.66-8,10.82,0,0,4.73,7.87.87,12.66S181,231.1,181,231.1Z" style="fill:#ad6359"></path><path d="M204.22,216c-.38,4.46-5.2,7-8.46,9.33a.37.37,0,0,0,0,.61c1.76,3.43,3.25,8.79,1.34,12.39a.09.09,0,0,0,.16.1c2.57-3.58,1.54-9-.64-12.61,3.39-2.35,8.11-5.1,7.66-9.81C204.26,216,204.22,216,204.22,216Z" style="fill:#263238"></path><path d="M181.62,226.57l6.86,30.54s-20.92,6.74-30.78,5.08c-12-2-34.4-34.32-37.63-39.7-5.31-8.84-5.23-14.74.28-14.22,2.14.18,5.1,1.34,8.89,3.7,4,2.46,27.12,18.82,34,21.49C167.1,235,181.62,226.57,181.62,226.57Z" style="fill:#3AD6AB"></path><path d="M182.68,256.76c-1.09-4.26-4.92-21.85-5.5-25.71,0-.26.12-.35.2-.08,3.58,12.68,4.61,21.51,5.47,25.74C182.87,256.82,182.71,256.87,182.68,256.76Z" style="fill:#263238"></path><path d="M159.18,262.35a11.54,11.54,0,0,1-1.48-.17c-12-2-34.4-34.31-37.63-39.7-5-8.36-5.23-14.1-.55-14.24C128.06,219.86,146.71,245.33,159.18,262.35Z" style="fill:#263238"></path><path d="M136.51,273.85c-1.31,1.27-57.13,7.08-57.41,6.71-.74-1,9.69-53.4,32.05-71.45,3.94-3.18,10.51-1.85,13.48.06,1.49,1,5.61,8.48,6.79,15.17S137.33,273.05,136.51,273.85Z" style="fill:#3AD6AB"></path><path d="M99.89,219.54c-16.64,18.79-35.28,50.36-27.08,57,7.49,6,32.66.25,49.63-6.6,3.23-1.3-.76-27-4.42-26.33-6.73,1.23-19,5.55-19.48,5.67-.93.27,5-13.75,10.53-27.35C115.2,206.75,109.4,208.8,99.89,219.54Z" style="fill:#ad6359"></path><path d="M113.19,244.7s10.23-2.36,17-3.53c3.75-.66,10.28-1.21,13.26-.43,4.45,1.17,22.33,8.89,20.55,13.26-1.61,4-16.13-4.62-16.13-4.62s15.42,7.37,12.6,11.78-17.93-7.47-17.93-7.47,15.67,7.92,12.05,12c-2.74,3.09-17-6.9-17-6.9s13.42,6.9,10.74,10.2c-3,3.65-16.73-4.74-16.73-4.74-8.22,7.24-15.1,7.33-20,6.81C110.34,271,113.19,244.7,113.19,244.7Z" style="fill:#ad6359"></path><path d="M142.67,246.49c1.84.8,3.71,1.6,5.47,2.56s3.5,2,5.17,3.1a35,35,0,0,1,6.07,5c-3.49-3.11-9.75-6.65-11.52-7.61s-3.47-2-5.23-3C142.58,246.53,142.62,246.47,142.67,246.49Z" style="fill:#263238"></path><path d="M139.08,252.8c2.31,1.12,4.64,2.15,6.9,3.38s5.34,3,7.5,4.4c.16.11.08.39-.09.29-2.21-1.28-5.45-3-7.68-4.24s-4.4-2.61-6.66-3.78C139,252.83,139.05,252.78,139.08,252.8Z" style="fill:#263238"></path><path d="M135,257.66a58.1,58.1,0,0,1,10.15,6c.16.12,0,.17-.16.07-3.34-2.05-5.94-3.69-10-5.91C134.91,257.75,135,257.63,135,257.66Z" style="fill:#263238"></path><path d="M108.09,211.25c-12.1,7.47-43.24,51.42-37.51,63.51s44.77-1.22,44.77-1.22L112.53,243s-10.9,3.46-11.24,2.94,5.64-15.52,8.08-21.61S114.53,207.28,108.09,211.25Z" style="fill:#3AD6AB"></path><path d="M110.4,271.68c-.72-4.34-3-22.19-3.27-26.08,0-.27.15-.35.21-.07,2.48,12.94,2.74,21.82,3.24,26.11C110.59,271.75,110.42,271.79,110.4,271.68Z" style="fill:#263238"></path><path d="M112.75,242.62a23.56,23.56,0,0,0-3.52.89c-1,.3-2.08.6-3.11.92-2.24.68-4.47,1.42-6.69,2.17s-4.43,1.53-6.63,2.33-4.35,1.74-6.55,2.55c-.1,0,0,.19.07.16,2.22-.77,4.5-1.4,6.74-2.11l6.59-2.11,6.59-2.1,3.21-1c1-.34,2.07-.71,3.09-1.12a15.18,15.18,0,0,0,.16,1.68C112.93,244.72,113,242.59,112.75,242.62Z" style="fill:#263238"></path><path d="M108.21,231.31c-.63.8-1.25,1.61-1.84,2.45l-.31.47.48-1.29a44.22,44.22,0,0,0,1.63-4.56c0-.07-.09-.1-.12,0A45.44,45.44,0,0,0,106,233c-.64,1.51-1.29,3-1.91,4.54s-1.24,3.05-1.83,4.58a33.22,33.22,0,0,0-1.56,4.6c0,.09.11.12.15,0a33.47,33.47,0,0,0,2.12-4.59c.63-1.51,1.22-3,1.83-4.58.26-.64.5-1.28.74-1.93l.32-.43c.29-.4.57-.82.84-1.23.55-.87,1.06-1.74,1.57-2.63C108.28,231.31,108.23,231.28,108.21,231.31Z" style="fill:#263238"></path><path d="M115.42,272.82c0-.22-.13-.27-.17,0s0,.36-.06.49c-1.33.36-6.19,1.84-7.37,2.19q-3.75,1.11-7.54,1.95c-2.55.57-5.1,1.07-7.68,1.45a92.14,92.14,0,0,1-14.94.4c-.11,0-.1.14,0,.17a58.74,58.74,0,0,0,15.09.07c2.57-.3,5.14-.73,7.67-1.26s5.14-1.2,7.66-2c1.26-.38,2.51-.8,3.75-1.24a18.26,18.26,0,0,0,3.52-1.42.27.27,0,0,0,.12-.24Z" style="fill:#263238"></path><path d="M122.86,218.05c-3.22.7-8.64-4.29-10.75-8.29-.14-.27,1.17-11.13,1.21-13.31C113.33,196,127,200,127,200a34.56,34.56,0,0,0-1.47,8.34C125.48,208.66,126,217.37,122.86,218.05Z" style="fill:#ad6359"></path><path d="M127,200h0c0,.06-.1.33-.22.76-.2.73-.5,1.91-.75,3.27a24.3,24.3,0,0,0-.48,4.3,3,3,0,0,0,0,.3v.05c0,.18,0,.42,0,.7a8.22,8.22,0,0,1-1.34.05c-7.44-.29-9.79-9.47-10.42-13l.23.05c.36.06.84.17,1.41.3l.43.11,3.12.82,1.12.3,2.38.67,1,.27,1,.27.45.13.21.06,1.13.33.54.16a1.13,1.13,0,0,1,.22.07h0Z" style="fill:#263238"></path><path d="M111.09,183c-.86,5,3.45,18.55,7.26,21.21,5.54,3.86,13.71,3.26,16.78-3.19,3-6.24-3-23.82-7.14-26.14C121.83,171.4,112.36,175.57,111.09,183Z" style="fill:#ad6359"></path><path d="M125.71,189.35s-.06.07,0,.11c.34.9.58,2-.13,2.56,0,0,0,.07,0,0C126.5,191.59,126.17,190.15,125.71,189.35Z" style="fill:#263238"></path><path d="M124.57,188.69c-1.5.39-.6,3.35.78,3S125.83,188.36,124.57,188.69Z" style="fill:#263238"></path><path d="M131.07,187.91s.08,0,.09.06c.25.92.69,1.94,1.61,2,0,0,0,.05,0,.05C131.72,190.18,131.15,188.82,131.07,187.91Z" style="fill:#263238"></path><path d="M131.6,186.7c1.44-.56,2.45,2.37,1.11,2.89S130.39,187.17,131.6,186.7Z" style="fill:#263238"></path><path d="M123.09,187.63a12,12,0,0,0,1.1-.63c.42-.25.78-.4,1-.86a.65.65,0,0,0-.25-.76,1.62,1.62,0,0,0-1.64.13,2.42,2.42,0,0,0-1.16,1.26A.7.7,0,0,0,123.09,187.63Z" style="fill:#263238"></path><path d="M132.3,184.73a10.79,10.79,0,0,1-1.27.05,2.1,2.1,0,0,1-1.31-.2.65.65,0,0,1-.19-.77,1.61,1.61,0,0,1,1.46-.76,2.4,2.4,0,0,1,1.66.45A.7.7,0,0,1,132.3,184.73Z" style="fill:#263238"></path><path d="M127.42,198.13a1.46,1.46,0,0,0,.94.31,2.62,2.62,0,0,0,.91-.53,0,0,0,0,1,.06,0,1.33,1.33,0,0,1-1,.85,1,1,0,0,1-1-.6S127.38,198.11,127.42,198.13Z" style="fill:#263238"></path><path d="M127.56,195.09a3.26,3.26,0,0,0,2.5.77,4.07,4.07,0,0,0,1.14-.29.67.67,0,0,0,.21-.09l.19-.09a.24.24,0,0,0,.13-.26h0l0-.09h0l0-.08c-.19-.71-.59-1.76-.59-1.76.3,0,1.8.24,1.66-.12a49.25,49.25,0,0,0-4-9.1.09.09,0,0,0-.16.08c.94,2.92,2.39,5.67,3.39,8.59a5.78,5.78,0,0,0-1.61,0c-.09.06.79,2,.85,2.35a.06.06,0,0,1,0,0,4.53,4.53,0,0,1-3.54,0C127.54,195,127.48,195,127.56,195.09Z" style="fill:#263238"></path><path d="M130.68,195.34a3.89,3.89,0,0,1-1.14,1.6,1.78,1.78,0,0,1-1,.36c-.8,0-1-.64-1.05-1.25a3.86,3.86,0,0,1,.06-1A5,5,0,0,0,130.68,195.34Z" style="fill:#263238"></path><path d="M129.54,196.94a1.78,1.78,0,0,1-1,.36c-.8,0-1-.64-1.05-1.25A1.78,1.78,0,0,1,129.54,196.94Z" style="fill:#ff9abb"></path><path d="M113.29,194.07c2.58-.27,1.92-4.74,1.92-4.74s5.06-1.4,4.8-8.11c0,0,7.75,1.71,11.14-2.6s-8-12.61-18.79-2.21c0,0-5.52,1.64-5.84,6.35S110.18,194.39,113.29,194.07Z" style="fill:#263238"></path><path d="M119.75,180.49c0-.07-.15,0-.12,0,1.36,4.3-1,8.65-5.74,8.9a.13.13,0,0,0,0,.25C118.64,189.91,122.39,184.75,119.75,180.49Z" style="fill:#263238"></path><path d="M122.88,171.35s0,0,0,0a16.46,16.46,0,0,1,4.79.63c2.31.77,5.47,3.11,4.25,5.93-1.67,3.88-7.26,3.54-10.7,3.07a.18.18,0,0,0-.09.35c3.54,1.1,10.59.7,11.5-3.91C133.63,172.33,126.38,171,122.88,171.35Z" style="fill:#263238"></path><path d="M115.63,193.86s-3.8-4-5.67-2.6,1.45,7.56,4,8.09a2.45,2.45,0,0,0,3.06-1.78Z" style="fill:#ad6359"></path><path d="M111,193a0,0,0,0,0,0,.06,6.17,6.17,0,0,1,3.74,3.37,1.36,1.36,0,0,0-2.06-.07s0,.1.06.08a1.52,1.52,0,0,1,1.72.28,7.17,7.17,0,0,1,1,1.21c.1.14.36,0,.27-.14l0,0C115.38,195.61,113.28,192.87,111,193Z" style="fill:#263238"></path><path d="M125.56,209.49l-3.27,8.13-10.11-10.29-2.86,3.3s9.88,16.35,9.94,15.61l3.36-7,4.83,4.88-.39-12.24Z" style="fill:#ebebeb"></path><path d="M127.6,218.05c-.13-2-.2-4.06-.43-6.07,0-.07-.12-.1-.14,0-.4,1.95.14,9.67.13,11.52l0,0c-.2-.21-4.48-4.29-4.52-4.23-.73,1.12-3.19,6.22-3.36,6.69-1.56-2.6-7.55-12-9.4-14.5-.06-.07-.16,0-.12.07,1.38,2.74,9.3,15.46,9.43,15.42a77.57,77.57,0,0,0,3.5-7.41c.73.89,5,5.5,5.06,5.2A61.45,61.45,0,0,0,127.6,218.05Z" style="fill:#263238"></path></g><g id="freepik--Tables--inject-18"><rect x="294.2" y="270.75" width="70.28" height="157.25" style="fill:#263238"></rect><rect x="85.52" y="270.75" width="70.28" height="157.25" style="fill:#37474f"></rect><rect x="155.8" y="270.75" width="208.68" height="21.84" style="fill:#455a64"></rect><polygon points="156.25 281.66 182.28 281.48 208.31 281.42 260.37 281.29 312.43 281.41 338.45 281.48 364.48 281.66 338.45 281.85 312.43 281.91 260.37 282.04 208.31 281.91 182.28 281.85 156.25 281.66" style="opacity:0.1"></polygon><rect x="155.8" y="270.75" width="9.45" height="157.25" style="fill:#455a64"></rect><rect x="355.03" y="270.75" width="9.45" height="157.25" style="fill:#455a64"></rect><rect x="604.76" y="270.75" width="70.28" height="157.25" style="fill:#263238"></rect><rect x="396.08" y="270.75" width="70.28" height="157.25" style="fill:#37474f"></rect><rect x="466.36" y="270.75" width="208.68" height="21.84" style="fill:#455a64"></rect><polygon points="466.81 281.66 492.84 281.48 518.87 281.42 570.92 281.29 622.98 281.41 649.01 281.48 675.04 281.66 649.01 281.85 622.98 281.91 570.92 282.04 518.87 281.91 492.84 281.85 466.81 281.66" style="opacity:0.1"></polygon><rect x="466.36" y="270.75" width="9.45" height="157.25" style="fill:#455a64"></rect><rect x="665.59" y="270.75" width="9.45" height="157.25" style="fill:#455a64"></rect></g><g id="freepik--Devices--inject-18"><rect x="119.48" y="268.32" width="54.16" height="2.43" style="fill:#c7c7c7"></rect><rect x="146.37" y="268.32" width="27.26" height="2.43" style="fill:#a6a6a6"></rect><polygon points="149.31 270.74 202.09 270.74 208.99 234.9 156.21 234.9 149.31 270.74" style="fill:#c7c7c7"></polygon><path d="M175.93,252.82a2.9,2.9,0,0,0,2.94,3.21,3.57,3.57,0,0,0,3.49-3.21,2.9,2.9,0,0,0-2.93-3.21A3.58,3.58,0,0,0,175.93,252.82Z" style="fill:#ebebeb"></path><polygon points="545.57 270.75 492.58 270.75 488.48 234.76 541.46 234.76 545.57 270.75" style="fill:#c7c7c7"></polygon><polygon points="542.68 268.33 494.92 268.33 491.37 237.17 539.13 237.17 542.68 268.33" style="fill:#fff"></polygon><rect x="492.95" y="268.33" width="68.16" height="2.41" style="fill:#c7c7c7"></rect><rect x="507.75" y="268.33" width="68.16" height="2.41" style="fill:#ebebeb"></rect><path d="M496.65,240.41c6.52-.11,13-.08,19.56-.12s13,0,19.56.12c-6.52.11-13,.08-19.56.13S503.17,240.52,496.65,240.41Z" style="fill:#c7c7c7"></path><path d="M496.85,242c6.52-.11,13-.08,19.56-.13s13,0,19.56.13c-6.52.1-13,.08-19.56.12S503.37,242.11,496.85,242Z" style="fill:#c7c7c7"></path><path d="M497.05,243.6c6.52-.1,13-.08,19.56-.12s13,0,19.56.12c-6.52.11-13,.08-19.56.13S503.57,243.71,497.05,243.6Z" style="fill:#c7c7c7"></path><path d="M497.25,245.2c6.52-.11,13-.08,19.56-.13s13.05,0,19.57.13c-6.52.11-13,.08-19.57.12S503.77,245.31,497.25,245.2Z" style="fill:#c7c7c7"></path><path d="M497.45,246.79c6.52-.1,13-.08,19.57-.12s13,0,19.56.12c-6.52.11-13,.08-19.56.13S504,246.9,497.45,246.79Z" style="fill:#c7c7c7"></path><path d="M497.65,248.39c6.53-.11,13.05-.08,19.57-.13s13,0,19.56.13c-6.52.11-13,.08-19.56.12S504.18,248.5,497.65,248.39Z" style="fill:#c7c7c7"></path><path d="M497.86,250c6.52-.1,13-.08,19.56-.12s13,0,19.56.12c-6.52.11-13,.08-19.56.13S504.38,250.09,497.86,250Z" style="fill:#c7c7c7"></path><path d="M498.06,251.58c6.52-.11,13-.08,19.56-.12s13,0,19.56.12c-6.52.11-13,.08-19.56.12S504.58,251.69,498.06,251.58Z" style="fill:#c7c7c7"></path><path d="M498.26,253.18c6.52-.11,13-.08,19.56-.13s13,0,19.57.13c-6.52.1-13,.08-19.57.12S504.78,253.28,498.26,253.18Z" style="fill:#c7c7c7"></path><path d="M498.46,254.77c6.52-.11,13-.08,19.57-.12s13,0,19.56.12c-6.52.11-13,.08-19.56.13S505,254.88,498.46,254.77Z" style="fill:#c7c7c7"></path><path d="M498.66,256.37c6.53-.11,13-.08,19.57-.13s13,0,19.56.13c-6.52.1-13,.08-19.56.12S505.19,256.47,498.66,256.37Z" style="fill:#c7c7c7"></path><path d="M498.87,258c6.52-.11,13-.08,19.56-.12s13,0,19.56.12c-6.52.11-13,.08-19.56.13S505.39,258.07,498.87,258Z" style="fill:#c7c7c7"></path><path d="M499.07,259.56c6.52-.11,13-.08,19.56-.13s13,0,19.56.13c-6.52.1-13,.08-19.56.12S505.59,259.66,499.07,259.56Z" style="fill:#c7c7c7"></path><path d="M499.27,261.15c6.52-.1,13-.08,19.56-.12s13,0,19.57.12c-6.53.11-13,.08-19.57.13S505.79,261.26,499.27,261.15Z" style="fill:#c7c7c7"></path><path d="M499.47,262.75c6.52-.11,13-.08,19.56-.13s13.05,0,19.57.13c-6.52.11-13,.08-19.57.12S506,262.86,499.47,262.75Z" style="fill:#c7c7c7"></path><polygon points="505.16 251.58 502.2 251.58 503.85 264.61 506.81 264.61 505.16 251.58" style="fill:#3AD6AB"></polygon><polygon points="510.26 248.4 507.3 248.4 509.35 264.61 512.32 264.61 510.26 248.4" style="fill:#3AD6AB"></polygon><polygon points="515.98 250.04 513.01 250.04 514.85 264.61 517.82 264.61 515.98 250.04" style="fill:#3AD6AB"></polygon><polygon points="520.87 245.2 517.9 245.2 520.36 264.61 523.32 264.61 520.87 245.2" style="fill:#3AD6AB"></polygon><polygon points="526.7 247.8 523.73 247.8 525.86 264.61 528.83 264.61 526.7 247.8" style="fill:#3AD6AB"></polygon><polygon points="531.47 242.01 528.5 242.01 531.37 264.61 534.33 264.61 531.47 242.01" style="fill:#3AD6AB"></polygon><path d="M497.57,239.29q1,6.32,1.84,12.63t1.7,12.64l-.34-.3c6.34-.05,12.69,0,19,0s12.69.14,19,.32c-6.34.18-12.68.25-19,.32s-12.69.08-19,0h-.31l0-.3c-.52-4.22-1-8.44-1.5-12.67S498,243.53,497.57,239.29Z" style="fill:#c7c7c7"></path><polygon points="507.01 266.21 504.05 266.21 504.01 265.95 506.98 265.95 507.01 266.21" style="fill:#c7c7c7"></polygon><polygon points="512.52 266.21 509.55 266.21 509.52 265.95 512.49 265.95 512.52 266.21" style="fill:#c7c7c7"></polygon><polygon points="518.02 266.21 515.06 266.21 515.02 265.95 517.99 265.95 518.02 266.21" style="fill:#c7c7c7"></polygon><polygon points="523.53 266.21 520.56 266.21 520.53 265.95 523.49 265.95 523.53 266.21" style="fill:#c7c7c7"></polygon><polygon points="529.03 266.21 526.06 266.21 526.03 265.95 529 265.95 529.03 266.21" style="fill:#c7c7c7"></polygon><polygon points="534.53 266.21 531.57 266.21 531.53 265.95 534.5 265.95 534.53 266.21" style="fill:#c7c7c7"></polygon><polygon points="539.3 238.69 539.13 237.17 491.37 237.17 491.54 238.69 539.3 238.69" style="fill:#263238"></polygon><path d="M495.39,237.93a.41.41,0,0,0,.38.38.31.31,0,0,0,.29-.38.41.41,0,0,0-.38-.38A.31.31,0,0,0,495.39,237.93Z" style="fill:#c7c7c7"></path><path d="M494,237.93a.42.42,0,0,0,.38.38.32.32,0,0,0,.3-.38.41.41,0,0,0-.38-.38A.32.32,0,0,0,494,237.93Z" style="fill:#fff"></path><path d="M492.62,237.93a.42.42,0,0,0,.38.38.32.32,0,0,0,.3-.38.41.41,0,0,0-.38-.38A.32.32,0,0,0,492.62,237.93Z" style="fill:#3AD6AB"></path></g><g id="freepik--character-4--inject-18"><polygon points="598.73 340.15 596.6 352.91 582.19 430.74 579.87 430.74 590.35 352.91 591.89 340.15 598.73 340.15" style="fill:#dbdbdb"></polygon><polygon points="591.89 340.15 598.73 340.15 596.6 352.91 590.35 352.91 591.89 340.15" style="fill:#c7c7c7"></polygon><polygon points="643.98 430.74 641.66 430.74 627.25 352.91 625.12 340.15 631.96 340.15 633.5 352.91 643.98 430.74" style="fill:#dbdbdb"></polygon><polygon points="631.96 340.15 633.5 352.91 627.25 352.91 625.12 340.15 631.96 340.15" style="fill:#c7c7c7"></polygon><polygon points="687.21 430.74 684.89 430.74 670.48 352.91 668.35 340.15 675.18 340.15 676.73 352.91 687.21 430.74" style="fill:#dbdbdb"></polygon><polygon points="676.73 352.91 670.48 352.91 668.35 340.15 675.18 340.15 676.73 352.91" style="fill:#c7c7c7"></polygon><polygon points="683.53 346.15 577.92 346.15 577.92 335.02 617.46 335.02 630.74 257.72 679.5 257.72 683.53 346.15" style="fill:#dbdbdb"></polygon><polygon points="683.53 346.15 677.77 346.15 674.02 257.72 679.5 257.72 683.53 346.15" style="fill:#c7c7c7"></polygon><path d="M589.84,439.43c2.09-.28,54.71-26.53,56-28.74.16-.26-2.1-5.06-5.32-11.6-7.28-14.79-21.83-39.81-21.83-39.81l-31.67,17.81,17.44,33s-5.86,7.09-10.61,13.1c0,0,0,0,0,0a83.31,83.31,0,0,0-5.89,8C586.79,433.78,587.76,439.72,589.84,439.43Z" style="fill:#d3766a"></path><path d="M589.84,439.43c2.09-.28,54.71-26.53,56-28.74.16-.26-2.1-5.06-5.32-11.6-11.7,9.21-44.33,30.7-46.67,28.44-.93-.9-.7-2.55,0-4.3a83.31,83.31,0,0,0-5.89,8C586.79,433.78,587.76,439.72,589.84,439.43Z" style="fill:#3AD6AB"></path><path d="M598.24,407.18l36.69-19.36S606.94,333,607.67,332c2.57-3.32,33.57-1.81,47-15.12,14.18-14.09,3.35-34.15,3.35-34.15h-37s.34,10-1.26,11.37c-1,.87-55.51,6.13-57.64,20.5C558.35,339.48,598.24,407.18,598.24,407.18Z" style="fill:#37474f"></path><path d="M596,400.34c4.41-2.66,8.93-5.12,13.47-7.57s9.11-4.83,13.73-7.11c2.6-1.29,5.26-2.46,7.87-3.74.08,0,.15.08.06.12-2.28,1.23-4.5,2.58-6.78,3.82s-4.5,2.43-6.76,3.63c-4.55,2.41-9.13,4.77-13.7,7.16-2.57,1.34-5.18,2.62-7.8,3.86A.1.1,0,0,1,596,400.34Z" style="fill:#263238"></path><path d="M593.08,325.9c.91-1.88,3.33-2.16,5.13-2.61L613,319.61c8.72-2.16,17.72-4.2,25.54-8.82,3.73-2.21,7.36-5,9.23-9s1.86-8.32,1.89-12.58c0-1.05-.06-2.1-.13-3.15,0-.1.14-.09.15,0,.27,4.19.7,8.38-.24,12.53a16.82,16.82,0,0,1-2.35,5.65,19.49,19.49,0,0,1-4.26,4.48c-6.91,5.42-15.59,8-24,10.16-4.74,1.21-9.5,2.36-14.25,3.53l-7.34,1.8a6.61,6.61,0,0,0-3,1.19,3.15,3.15,0,0,0-.91,2.66,10.3,10.3,0,0,0,.75,2.92c.44,1.15.9,2.29,1.36,3.43q1.37,3.35,2.79,6.66,2.88,6.68,6,13.25c4.12,8.75,8.52,17.36,13,25.91l1.65,3.22c0,.06-.07.12-.1.05-4.81-8.46-9.3-17.11-13.58-25.86s-8.28-17.48-11.71-26.52C592.87,329.5,592.29,327.54,593.08,325.9Z" style="fill:#263238"></path><path d="M487.37,441.38c2,.66,60.8,0,63-1.36.26-.16.28-12.76.28-12.76,9.65-21.92,18.39-43.12,18.39-43.12l-41.1-.05-14.54,37.32s-8.37,3.82-15.27,7.15v0a80.66,80.66,0,0,0-8.79,4.6C487.09,435,485.37,440.73,487.37,441.38Z" style="fill:#d3766a"></path><path d="M487.37,441.38c2,.66,60.8,0,63-1.36.26-.16.32-5.47.28-12.76-14.54,3.17-53.29,8.24-54.41,5.19-.44-1.22.49-2.6,1.88-3.87a80.66,80.66,0,0,0-8.79,4.6C487.09,435,485.37,440.73,487.37,441.38Z" style="fill:#3AD6AB"></path><path d="M516.39,413.53l44.39-.33s22.32-57.49,25.92-61.35c1.83-2,14-4.12,28.63-7.32l.08,0c5.39-1.18,11.1-2.51,16.73-4,14.64-3.91,28.73-9.05,35.14-16.14,13.42-14.83,0-41.63,0-41.63H629.49s-.94,11.67,2,18.81c0,0-27.81,4.08-51.22,11.68C567,317.51,555.1,323,550.5,329.42,541.54,342.07,516.39,413.53,516.39,413.53Z" style="fill:#37474f"></path><path d="M521.4,406.87c5.15-.38,10.29-.51,15.45-.63s10.3-.18,15.45-.12c2.91,0,5.81.19,8.71.23a.08.08,0,0,1,0,.15c-2.59.05-5.18.25-7.78.32s-5.11.13-7.67.17c-5.15.09-10.3.11-15.45.17-2.91,0-5.81,0-8.71-.1A.1.1,0,0,1,521.4,406.87Z" style="fill:#263238"></path><path d="M648,288.24a3.16,3.16,0,0,0,.22.5.08.08,0,0,1,0,.09c.5,1.54.71,3.19,1.19,4.74a7.41,7.41,0,0,0,2.87,4.1c2.93,2,6.46,3,9.86,3.8a.1.1,0,0,1,0,.19,18.61,18.61,0,0,1-5.82-.89,15.3,15.3,0,0,1-4.9-2.35,7.64,7.64,0,0,1-2.81-4.24,24.76,24.76,0,0,1-.5-2.73,21.18,21.18,0,0,1-.34-3.18A.15.15,0,0,1,648,288.24Z" style="fill:#263238"></path><path d="M624.53,298.93a43.59,43.59,0,0,1,6.79,2.6l.11,0a1.89,1.89,0,0,1-.1-.41l-.08-.49c0-.17,0-.34-.06-.51a2.11,2.11,0,0,0,0-.26v0a2,2,0,0,1-1.46-.75,5.36,5.36,0,0,1-.91-2.14c-.26-1-.49-1.94-.7-2.92s-.44-2.18-.61-3.27a21.13,21.13,0,0,1-.37-3.26.15.15,0,0,1,.3,0c.25,1,.37,2,.56,3.05s.41,2,.64,3,.48,2,.76,3,.5,2.17,1.53,2.47c2.12.6,1.17-4.16,1.07-5.09-.21-2.16-.35-4.36-.72-6.5a.07.07,0,0,1,.14,0c.45,2,1,3.89,1.33,5.88.17,1,.3,2,.4,2.94a4.57,4.57,0,0,1-.19,2.54,1.86,1.86,0,0,1-1.4,1l.06.22c0,.16.1.32.14.48l.12.48a1.33,1.33,0,0,1,.07.59.33.33,0,0,1-.11.13c.91.39,1.81.78,2.71,1.2a23.91,23.91,0,0,1,3.26,1.58c.12.06,0,.23-.09.2a24.92,24.92,0,0,1-3.42-1.23c-1.13-.44-2.25-.9-3.38-1.37a41.66,41.66,0,0,1-6.46-3A.11.11,0,0,1,624.53,298.93Z" style="fill:#263238"></path><path d="M564.12,385.4q3.51-8.68,7.43-17.2t8.28-16.86c1.26-2.41,2.41-4.85,4.93-6.15a18.7,18.7,0,0,1,3.63-1.3c1.47-.39,3-.77,4.43-1.14,12-3,24.2-5.55,36.16-8.91,6-1.67,11.9-3.56,17.69-5.82,4.69-1.84,9.38-4,13.28-7.21a21.53,21.53,0,0,0,4.77-5.43c1.48-2.48,4.94-9.23-.19-29.66,0-.09.1-.16.13-.07,4.09,14.56,3.23,22.48,2.48,25.37a18.59,18.59,0,0,1-3.36,6.78c-3,3.86-7.29,6.54-11.67,8.63a120,120,0,0,1-16.2,6.07c-11.92,3.74-24.14,6.35-36.28,9.23-3,.71-6,1.45-9,2.21-2.68.69-5.81,1.23-7.73,3.41a17.89,17.89,0,0,0-2.24,3.7c-.72,1.39-1.44,2.79-2.14,4.18q-2.18,4.31-4.25,8.63-8.19,17.11-14.9,34.89c-.55,1.47-1.1,2.93-1.67,4.39a.09.09,0,0,1-.18-.05C559.47,397.12,561.77,391.23,564.12,385.4Z" style="fill:#263238"></path><path d="M578.37,368.92a109.2,109.2,0,0,1,5.2-12.63c1.17-2.32,2.5-5.09,5.07-6.08a38,38,0,0,1,4.21-1.16c1.49-.37,3-.74,4.48-1.09q4.49-1.06,9-2c3.35-.7,6.73-1.37,10.12-1.73.09,0,.09.12,0,.14-2.88.84-5.81,1.47-8.72,2.17s-5.68,1.35-8.52,2-5.82,1.44-8.72,2.2a7.18,7.18,0,0,0-3.4,1.81c-1.3,1.27-7.77,15.41-8.49,16.82C578.4,369.81,578.26,369.34,578.37,368.92Z" style="fill:#263238"></path><path d="M562.11,320.24a104.63,104.63,0,0,1,13.57-6.43c4.25-1.45,8.58-2.66,12.91-3.84,8.89-2.42,17.91-4.44,27-6.07q3.87-.7,7.77-1.32a69.9,69.9,0,0,1,7.64-.94c.09,0,.1.13,0,.16-2.25.55-4.56.89-6.84,1.28s-4.51.79-6.75,1.22c-4.49.87-9,1.8-13.43,2.82-8.83,2-17.68,4.19-26.31,6.92-4.59,1.45-11.51,4.79-15.39,6.53A.19.19,0,0,1,562.11,320.24Z" style="fill:#263238"></path><path d="M652.24,261.14a36.49,36.49,0,0,1-6.32,5.37c2.82-6.94.08-21.26-.07-19.14-.73,10.15-5.29,21.84-7.56,22.72l0,0a27.47,27.47,0,0,1-17.36-1v0c3.79-7.95,1.39-22.56,1.2-21.62-2.14,10.09-8.69,16.78-10,17h0c-5.43-3.82-8.62-8-8-8.53,4.42-4.08,7.31-13.33,9.72-23h0c2.38-9.54,3-18.36,7-27.17,3.71-8.06,13.1-10.89,19.1-8C655.7,205.41,654.92,258.29,652.24,261.14Z" style="fill:#263238"></path><path d="M638.9,197.27a9.69,9.69,0,0,1,3.55,2.12,22.8,22.8,0,0,1,2.84,3.05,40.21,40.21,0,0,1,4.19,7.21,62.57,62.57,0,0,1,4.69,16,97.08,97.08,0,0,1,1.14,16.59c0,1.39-.09,2.77-.13,4.15l-.26,4.15-.42,4.13-.54,4.11.3-4.13.2-4.14.13-4.13c0-1.38,0-2.76,0-4.14a106.27,106.27,0,0,0-1.32-16.44,66,66,0,0,0-4.42-15.84,40.27,40.27,0,0,0-3.91-7.22,22.7,22.7,0,0,0-2.65-3.14,15.34,15.34,0,0,0-1.58-1.32A7,7,0,0,0,638.9,197.27Z" style="fill:#263238"></path><path d="M603.31,254.46a69.9,69.9,0,0,0,3.33-6.36c1-2.15,2-4.35,2.82-6.58s1.62-4.49,2.25-6.79,1.19-4.63,1.79-6.95c1.24-4.63,2.48-9.27,4-13.83.77-2.28,1.58-4.55,2.54-6.75a32.63,32.63,0,0,1,1.64-3.23A8.73,8.73,0,0,1,624,201.2a9.28,9.28,0,0,0-2.07,2.89,35.35,35.35,0,0,0-1.43,3.28c-.87,2.22-1.6,4.5-2.28,6.79-1.37,4.58-2.6,9.21-3.78,13.85-.62,2.32-1.2,4.63-1.87,7a62.63,62.63,0,0,1-2.4,6.82A68.75,68.75,0,0,1,603.31,254.46Z" style="fill:#263238"></path><path d="M637.6,241.52c-9.11,17.16-17.1,30-23.16,32.17-4.88,1.73-11.27,2.21-17.67,2.08a156.34,156.34,0,0,1-20.38-2c-2.08-.33-3.8-.64-5-.85-3-.55-3.06-21.41-.36-23.29.62-.43,2.69-.37,5.53,0,9.55,1.12,27.87,5.34,29.22,4.57s13.9-11.55,24.4-19.82C637.4,228.58,642.65,232,637.6,241.52Z" style="fill:#d3766a"></path><path d="M577.82,272.36a73.69,73.69,0,0,1-9.65,1.08c-2.56,0-9.92-.15-10.21-3-.2-1.92,4.14-2.33,7.2-2.69,1.61-.18,3.82-1.19,3.66-2.23-.28-1.84-4.46-1.27-7.3-.55-5.5,1.39-13.2,4.53-15.4,1.32-.83-1.22.9-2.51,3.22-3.59-3.55,1-7.19,1.65-8.17.34a1.65,1.65,0,0,1,.27-2.25,2.2,2.2,0,0,1-2.22-1c-.68-1.3.22-2.67,1.73-3.91a1.24,1.24,0,0,1-.72-.84c-1.16-3.74,11.77-9.84,15.59-9.66A82.55,82.55,0,0,1,578,250C581.2,254.48,577.84,272.36,577.82,272.36Z" style="fill:#d3766a"></path><path d="M565.14,258.12a17.87,17.87,0,0,0-7.79.7c-2.94,1-5.55,2.73-8.37,4a.07.07,0,1,0,.06.12c1.35-.68,2.77-1.23,4.15-1.86s2.68-1.27,4.06-1.79a17.71,17.71,0,0,1,7.89-1.11A0,0,0,0,0,565.14,258.12Z" style="fill:#263238"></path><path d="M564.46,253.09a44.18,44.18,0,0,0-9,.5c-3.22.63-6.09,2.33-8.9,4-1.68,1-3.35,2-5,3.05-.07,0,0,.16,0,.12q4.29-2.55,8.73-4.83a23.39,23.39,0,0,1,8.79-2.56c1.76-.16,3.52-.17,5.28-.19C564.49,253.14,564.49,253.09,564.46,253.09Z" style="fill:#263238"></path><path d="M562.62,248.34a22.39,22.39,0,0,0-8.12.35,40.09,40.09,0,0,0-9.06,4.18c-1.53.92-3,1.9-4.53,2.89-.06,0,0,.15.07.11a91.83,91.83,0,0,1,10.52-5.78,18.26,18.26,0,0,1,5.44-1.67,32.65,32.65,0,0,1,5.68-.06S562.63,248.34,562.62,248.34Z" style="fill:#263238"></path><path d="M614.09,243.14l18.7,7.49a150.32,150.32,0,0,0,8.53-13.24c3.48-6.63,1.83-9.48-6.73-6.16C628.86,233.45,614.09,243.14,614.09,243.14Z" style="fill:#3AD6AB"></path><path d="M630.51,249.72c.22.05,2.16.75,2.29.84.67-1,1.32-2,2-2.95.34-.49.69-1,1-1.45s.81-1.15,1.16-1.61c0-.08.15,0,.1.06-.39.65-.7,1.13-1,1.69s-.62,1-1,1.48c-.69,1-1.39,2.16-2.13,3.15a19.1,19.1,0,0,1-2.51-1.14S630.48,249.72,630.51,249.72Z" style="fill:#263238"></path><path d="M616.7,242.12c2.8.91,5.57,1.85,8.31,2.91,1.37.53,2.73,1.08,4.08,1.66s2.64,1.28,4,1.83c.08,0,0,.15-.05.12-1.32-.62-2.74-1.07-4.09-1.62l-4.09-1.63c-2.73-1.07-5.45-2.15-8.2-3.15C616.57,242.21,616.62,242.1,616.7,242.12Z" style="fill:#263238"></path><path d="M620.33,287.71,673.47,292s-13.6-46.35-24.55-58.06c-5-5.32-9.86-4.51-14-1.08-1,.85-13.8,17.06-14.88,22.71-1,5,3.1,10.53,3.1,10.53Z" style="fill:#3AD6AB"></path><path d="M628.2,241.45c-1.6,2.56-3.34,5-5,7.56a34,34,0,0,0-2.24,3.88,9.83,9.83,0,0,0-1.1,4.3,7.6,7.6,0,0,1,.08-2.28,10.5,10.5,0,0,1,.68-2.17,30.77,30.77,0,0,1,2.18-4c.77-1.15,1.55-2.31,2.37-3.43.13-.39.29-.78.44-1.17a14.21,14.21,0,0,1,.84-1.65,12.69,12.69,0,0,1-.62,1.73l-.21.48C626.49,243.6,627.33,242.51,628.2,241.45Z" style="fill:#263238"></path><path d="M637.41,265a42.18,42.18,0,0,0-6.15.64c-1,.2-2,.44-3,.7-.5.13-1,.25-1.49.36a6.54,6.54,0,0,1-1.59.2c-.05,0-.05.07,0,.08a12.71,12.71,0,0,0,1.51.06,10.23,10.23,0,0,0,1.46-.19c1-.19,2-.42,3.06-.62,2.06-.4,4.12-.81,6.2-1.06A.09.09,0,0,0,637.41,265Z" style="fill:#263238"></path><path d="M642.37,267.1a45.41,45.41,0,0,0-5.07-.55c-.85,0-1.7,0-2.55,0l-1.22.07c-.45,0-.89.12-1.34.14,0,0-.05.08,0,.08.42,0,.85.05,1.27.06l1.27,0,2.55.09c1.7.05,3.39.11,5.09.21A.07.07,0,0,0,642.37,267.1Z" style="fill:#263238"></path><path d="M650.87,234.8c13.24,11.93,32,32.79,26.61,39.23-8.92,10.59-38.75,21.27-45.65,23.43-3,.93-12.77-17.84-11.21-20.79s33.73-10.8,33.59-12.84c-.08-1.16-4.53-10.37-9.94-21.86C638,228.72,647.09,231.39,650.87,234.8Z" style="fill:#d3766a"></path><path d="M625.64,274s-9.34,1.66-15.4,3c-3.38.77-9.06,2.6-11.29,4.29-3.33,2.54-15.63,15.3-12.6,18.35,2.74,2.76,11.92-9.54,11.92-9.54s-10.36,11.59-6.45,14.31,12.43-12.56,12.43-12.56-10.38,12.15-5.9,14.31c3.38,1.64,11.88-11.76,11.88-11.76s-8.84,10.5-5.44,12.33c3.77,2,12.39-9.85,12.39-9.85,9.44,3.2,15.25.86,19.18-1.29C637.31,295.13,625.64,274,625.64,274Z" style="fill:#d3766a"></path><path d="M601.59,285.93c-1.26,1.32-2.55,2.64-3.7,4.07s-2.24,2.89-3.25,4.42a30.77,30.77,0,0,0-3.35,6.31,67.28,67.28,0,0,1,7-10.43c1.14-1.42,2.22-2.9,3.36-4.33C601.68,285.94,601.62,285.9,601.59,285.93Z" style="fill:#263238"></path><path d="M606.81,290c-1.54,1.75-3.14,3.44-4.6,5.26s-2.69,3.66-4,5.56c-.1.15,0,.16.12,0,1.4-1.85,2.85-3.45,4.27-5.29s2.79-3.73,4.28-5.51C606.88,290,606.84,289.94,606.81,290Z" style="fill:#263238"></path><path d="M611.92,292.63a51.78,51.78,0,0,0-6.43,8.58c-.1.15,0,.14.16,0,2.08-2.89,3.69-5.17,6.36-8.48C612.05,292.67,612,292.58,611.92,292.63Z" style="fill:#263238"></path><path d="M667.75,249.92l-19.83,3.58a151.49,151.49,0,0,1-5.68-14.69c-2.07-7.2.12-9.66,7.83-4.68C655.24,237.46,667.75,249.92,667.75,249.92Z" style="fill:#3AD6AB"></path><path d="M650.34,253.07c-.22,0-2.27.3-2.41.36-.45-1.1-.9-2.21-1.37-3.3-.23-.55-.48-1.09-.73-1.63s-.56-1.29-.81-1.81c0-.09-.15-.05-.12,0,.26.72.47,1.24.69,1.86s.41,1.1.63,1.64c.47,1.15.92,2.4,1.45,3.52a21,21,0,0,0,2.69-.61A0,0,0,0,0,650.34,253.07Z" style="fill:#263238"></path><path d="M665.4,248.4c-2.92.33-5.83.69-8.73,1.18-1.44.24-2.89.51-4.32.8s-2.85.73-4.29,1a.06.06,0,1,0,0,.12c1.42-.34,2.9-.49,4.34-.75s2.89-.53,4.33-.78c2.89-.5,5.77-1,8.67-1.43C665.51,248.51,665.48,248.4,665.4,248.4Z" style="fill:#263238"></path><path d="M641.93,232.2c-.06,1-3.44,7.7-7.69,8.22-1.39.17-2.64-7.35-2.64-7.35l-.22-.53-3.07-7.48,8.14-7.42,1.18-1s.71,2.1,1.56,4.73l.12.37c.05.15.1.29.14.43.13.39.27.78.39,1.19s.19.6.28.92.19.64.29,1A51.87,51.87,0,0,1,641.93,232.2Z" style="fill:#d3766a"></path><path d="M639.19,221.37a16.25,16.25,0,0,1-7.81,11.17l-3.07-7.48,8.14-7.42,1.18-1S638.34,218.74,639.19,221.37Z" style="fill:#263238"></path><path d="M616,213.6c-.82,14.16,7.56,16.25,10.62,16.42,2.77.16,12.23.35,14.51-13.65s-4-18.86-10.37-19.55S616.83,199.44,616,213.6Z" style="fill:#d3766a"></path><path d="M618.15,211.27c.33,0,.64-.11,1-.17a1.49,1.49,0,0,0,.95-.36.51.51,0,0,0,0-.61,1.28,1.28,0,0,0-1.23-.34,1.84,1.84,0,0,0-1.17.61A.54.54,0,0,0,618.15,211.27Z" style="fill:#263238"></path><path d="M627.68,212.15c-.34,0-.65,0-1,0a1.56,1.56,0,0,1-1-.18.52.52,0,0,1-.14-.61,1.28,1.28,0,0,1,1.15-.55,1.89,1.89,0,0,1,1.26.39A.54.54,0,0,1,627.68,212.15Z" style="fill:#263238"></path><path d="M625.5,215s.07,0,.07.09c-.09,1,0,2.08.82,2.45,0,0,0,.06,0,.05C625.33,217.37,625.26,215.88,625.5,215Z" style="fill:#263238"></path><path d="M626.42,214c1.55,0,1.49,3.09.05,3.12S625.11,214.05,626.42,214Z" style="fill:#263238"></path><path d="M627,214.21c.26.18.52.5.85.54s.67-.28.93-.59c0,0,.05,0,.05,0,0,.6-.24,1.2-.89,1.28s-1-.47-1.13-1.07C626.82,214.3,626.92,214.14,627,214.21Z" style="fill:#263238"></path><path d="M620.13,214.68s-.07,0-.07.08c0,1-.12,2.07-1,2.38a0,0,0,0,0,0,.06C620.13,217.06,620.31,215.59,620.13,214.68Z" style="fill:#263238"></path><path d="M619.28,213.66c-1.55-.14-1.71,3-.27,3.1S620.58,213.77,619.28,213.66Z" style="fill:#263238"></path><path d="M618.62,213.83c-.25.15-.51.44-.8.44s-.58-.34-.78-.68c0,0,0,0,0,0,0,.6.12,1.23.68,1.37s.93-.36,1.1-.94C618.8,213.94,618.73,213.77,618.62,213.83Z" style="fill:#263238"></path><path d="M625.45,222.91c-.23.24-.45.55-.8.59a2.42,2.42,0,0,1-1-.22,0,0,0,0,0,0,.06,1.31,1.31,0,0,0,1.24.49,1,1,0,0,0,.74-.87A.05.05,0,0,0,625.45,222.91Z" style="fill:#263238"></path><path d="M621.52,219.3s-.24,1.43-.26,2.11c0,.07.16.1.39.12h0a3.23,3.23,0,0,0,3.18-1.1c0-.07,0-.14-.1-.1a4.81,4.81,0,0,1-3,.75c0-.19.5-2.44.39-2.45a5.43,5.43,0,0,0-1.55.3c.42-3,1.32-5.92,1.7-8.92a.1.1,0,0,0-.18,0,49.48,49.48,0,0,0-2.24,9.52C619.83,219.87,621.25,219.4,621.52,219.3Z" style="fill:#263238"></path><path d="M640,217.4c-1.52-.23-5.12-4.83-4.55-12.26,0,0-.05,6.7.36,7.73s-2-2.59-1.63-8.59a24.44,24.44,0,0,1-6.44,2.61c-2.9.52-4.62.33-4.8.11s4.09-1.14,5.34-2.33c0,0-7.84,2.78-11.33,2.72-.4,0-.1-8.29,5.58-11.28s13.8,1.59,15.87,4c0,0,2.65.64,5.18,4.87S641.67,217.66,640,217.4Z" style="fill:#263238"></path><path d="M640.86,221.59a3.86,3.86,0,0,1-.65.19,2.21,2.21,0,0,1-.67,0,1.92,1.92,0,0,1-.83-.24,2.5,2.5,0,0,1-.54-.39,2.66,2.66,0,0,1-.56-.79l.67-3.81s3-4.51,5-3.46S643.19,220.65,640.86,221.59Z" style="fill:#d3766a"></path><path d="M642.63,215s0,0,0,.06a6.09,6.09,0,0,0-3,3.88,1.33,1.33,0,0,1,2-.42s0,.1,0,.09a1.49,1.49,0,0,0-1.61.56,7.61,7.61,0,0,0-.74,1.34c-.07.15-.34.08-.29-.09v0C638.82,218.23,640.38,215.24,642.63,215Z" style="fill:#263238"></path><path d="M640.65,221a.66.66,0,1,1-.54-.76A.65.65,0,0,1,640.65,221Z" style="fill:#fff"></path><path d="M642,220a.47.47,0,1,1-.92-.16.47.47,0,0,1,.54-.38A.48.48,0,0,1,642,220Z" style="fill:#fff"></path></g><g id="freepik--character-3--inject-18"><path d="M443.88,344.9l29,23.42c5.56,4.45,10.36,8.45,12.65,10.75a.08.08,0,0,1,0,0,5,5,0,0,1,1.39,1.78s0,0,0,.06c-.2,2.55-34.45,48.05-36.18,49.23s-5.24-3.65-5.32-6.47,5.25-26.12,5.25-26.12L422,373.92Z" style="fill:#eb9481"></path><path d="M466.92,363.52l5.95,4.8c5.56,4.45,10.36,8.45,12.65,10.75a.08.08,0,0,1,0,0,9.72,9.72,0,0,1,1.39,1.78s0,0,0,.06c-.2,2.55-34.45,48.05-36.18,49.23s-5.24-3.65-5.32-6.47,5.25-26.12,5.25-26.12l-6.11-4.79Z" style="fill:#ebebeb"></path><path d="M450.78,430.18c1.73-1.18,36-46.67,36.18-49.23.09-1-6.25-6.35-14.09-12.62l-.25-.2-22.42,29.1.51.37s-5.32,23.27-5.25,26.11S449.05,431.38,450.78,430.18Z" style="fill:#a6a6a6"></path><path d="M449.4,428.34c5.59-7.81,28.85-38.78,35-46.08.05-.06.09,0,.05,0-5.37,7.86-28.88,38.65-34.88,46.14C449.4,428.59,449.29,428.51,449.4,428.34Z" style="fill:#263238"></path><path d="M448.94,400.13c1.71-3.44,4.95-6.78,8.84-7.47.15,0,.18.19.08.26a53.25,53.25,0,0,0-8.53,7.48A.24.24,0,0,1,448.94,400.13Z" style="fill:#263238"></path><path d="M448.61,403.3c1.71-3.45,4.95-6.79,8.84-7.48.15,0,.18.19.08.27a53.18,53.18,0,0,0-8.53,7.48A.24.24,0,0,1,448.61,403.3Z" style="fill:#263238"></path><path d="M448.29,406.46c1.7-3.44,4.95-6.78,8.83-7.47.15,0,.19.19.08.26a52.75,52.75,0,0,0-8.52,7.49A.24.24,0,0,1,448.29,406.46Z" style="fill:#263238"></path><path d="M428.22,317c2,10.14,44.1,50.58,44.1,50.58L443,401.42s-59.7-59.6-56.58-82c2.71-19.48,31.87-97.81,31.87-97.81h33.64S426.2,307,428.22,317Z" style="fill:#37474f"></path><path d="M428.22,317c2,10.14,44.1,50.58,44.1,50.58L443,401.42s-59.7-59.6-56.58-82c2.71-19.48,31.87-97.81,31.87-97.81h33.64S426.2,307,428.22,317Z" style="fill:#263238"></path><path d="M439.67,393.37c3.89-4.85,2.71-3.51,6.66-8.32,1.93-2.35,14.64-17.79,16.83-19.66,0-.05.13,0,.1.08-1.47,2.48-14.45,17.69-16.43,20-4,4.73-2.93,3.32-7,8A.09.09,0,0,1,439.67,393.37Z" style="fill:#37474f"></path><path d="M424,312.06c.48-2.53,1-5.05,1.56-7.57q1.65-7.71,3.48-15.39,3.63-15.23,7.9-30.28c2.87-10.07,5.9-20.12,9.39-30,.43-1.22.88-2.43,1.32-3.65a.08.08,0,0,1,.15,0c-3,9.88-6.14,19.75-9,29.69s-5.43,19.87-7.89,29.87c-1.24,5-2.39,10.06-3.52,15.11q-.82,3.72-1.62,7.44a54.3,54.3,0,0,0-1.41,7.68,11.73,11.73,0,0,0,2,6.91c1.26,2.07,2.75,4,4.18,5.95,2.87,3.9,30.26,34.42,31.14,35.25.07.06,0,.16-.11.1-3.67-3.3-26.91-28.45-29.86-32.34q-2.19-2.89-4.27-5.85a23.4,23.4,0,0,1-3.35-5.89A14,14,0,0,1,424,312.06Z" style="fill:#37474f"></path><path d="M424.11,221.62l6.11,80.16c5.83-27.44,21.71-80.16,21.71-80.16Z" style="fill:#37474f"></path><path d="M438.54,386.66s-7.27,35.37-7.27,35.39c-.09,7.12-.3,13.37-.72,16.58,0,0,0,0,0,.06a5,5,0,0,1-.56,2.19s0,0,0,0c-2.14,1.41-59.08,2.29-61.07,1.66s-.34-6.38,1.84-8.18,23.84-11.88,23.84-11.88l7.62-35.34Z" style="fill:#eb9481"></path><path d="M368.87,442.57c2,.64,58.94-.24,61.08-1.64a.1.1,0,0,0,0-.05,4.93,4.93,0,0,0,.56-2.19.13.13,0,0,0,0-.06c.41-3.21.62-9.45.72-16.58l1.25-6.15H396l-1.42,6.61s-21.65,10.1-23.85,11.89S366.87,442,368.87,442.57Z" style="fill:#ebebeb"></path><path d="M368.88,442.58c2,.64,58.93-.25,61.07-1.66.83-.52,1.18-8.82,1.32-18.87v-.31l-36.73.16,0,.62s-21.64,10.09-23.84,11.89S366.88,442,368.88,442.58Z" style="fill:#a6a6a6"></path><path d="M369.49,440.36c9.59-.38,48.32-1,57.83-.68.08,0,.08.05,0,.06-9.5.59-48.23.92-57.83.78C369.29,440.51,369.28,440.37,369.49,440.36Z" style="fill:#263238"></path><path d="M391.48,422.68c3.76-.76,8.39-.26,11.32,2.39.11.1,0,.26-.16.22a53.35,53.35,0,0,0-11.14-2.13A.24.24,0,0,1,391.48,422.68Z" style="fill:#263238"></path><path d="M388.78,424.36c3.76-.76,8.39-.25,11.32,2.39.11.11,0,.27-.16.23a52.73,52.73,0,0,0-11.14-2.14A.24.24,0,0,1,388.78,424.36Z" style="fill:#263238"></path><path d="M386.07,426.05c3.77-.76,8.4-.26,11.33,2.39.11.1,0,.26-.16.23a52.85,52.85,0,0,0-11.14-2.14A.24.24,0,0,1,386.07,426.05Z" style="fill:#263238"></path><path d="M421.53,221.62a136.72,136.72,0,0,1,2.89,16.79c.71,7,1.59,13.27,2.52,14s6.38,4.29,8.17,5.39c0,0-16.57,50.25-20.85,67C408.06,349.12,393.2,422,393.2,422h39.58s12-69.36,17.29-92.48c4.51-19.82,21.79-79.28,21.79-79.28a34.5,34.5,0,0,0-1.4-28.59S421.53,221.6,421.53,221.62Z" style="fill:#263238"></path><path d="M394.63,414.28c6.22,0,4.44-.12,10.66-.08,3,0,23,.15,25.88.67.06,0,.06.12,0,.13-2.85.42-22.85-.06-25.89-.14-6.22-.15-4.43-.18-10.65-.4A.09.09,0,0,1,394.63,414.28Z" style="fill:#37474f"></path><path d="M424.14,250.47a75.34,75.34,0,0,1,10.92,7.31c.13.1,0,.32-.15.22-3.7-2.32-7.49-4.57-11.06-7.09A.26.26,0,0,1,424.14,250.47Z" style="fill:#37474f"></path><path d="M427.16,223.13c0-.14.28-.13.26,0A132.83,132.83,0,0,0,426,236.5c-.13,2.07-.24,13.61,3.43,13.34.62-.05,1-.59,1.24-1.47a14.34,14.34,0,0,0,.07-3.53c0-2.42,0-4.84.19-7.26a65.48,65.48,0,0,1,2.22-13.33.11.11,0,0,1,.22.05,124.86,124.86,0,0,0-1.78,18.6c0,3,.78,7.65-2.36,7.63s-4.07-7.75-4.14-9.83A68.48,68.48,0,0,1,427.16,223.13Z" style="fill:#37474f"></path><path d="M429.31,250.13a18.33,18.33,0,0,1,.43,2.46,5.44,5.44,0,0,1,0,2,.14.14,0,0,1-.26,0,6.79,6.79,0,0,1-.53-2c-.16-.77-.33-1.53-.47-2.3A.4.4,0,0,1,429.31,250.13Z" style="fill:#37474f"></path><path d="M466.25,249.93a39.17,39.17,0,0,1-10-1.9,23.69,23.69,0,0,1-9.72-6,19.25,19.25,0,0,1-3.73-5.21c0-.08-.15,0-.13.05a17.41,17.41,0,0,0,2.64,5.23,20.24,20.24,0,0,0,4.28,4.09,22.52,22.52,0,0,0,10.89,4.2,17.73,17.73,0,0,0,5.86-.09C466.52,250.26,466.44,250,466.25,249.93Z" style="fill:#37474f"></path><path d="M437.38,392.47c.11-.91.23-1.83.36-2.74.25-1.76.54-3.5.81-5.25.54-3.52,1.15-7,1.77-10.53,1.24-7,2.67-14,4.19-20.89.85-3.92,1.84-7.8,2.89-11.67.08-.27.46-.14.41.12-.64,3.55-1.25,7.1-2,10.62s-1.44,7-2.14,10.56c-1.38,7-2.67,13.95-4.05,20.91-.39,2-.74,3.94-1.12,5.9q-.28,1.47-.6,2.94c-.21,1-.52,1.93-.68,2.92,0,.09-.15.05-.14-.05C437.26,394.38,437.27,393.42,437.38,392.47Z" style="fill:#37474f"></path><path d="M410.09,339.89c1.32-6.57,3.1-13.05,4.88-19.5,3.6-13,7.83-25.79,12.06-38.58q1.83-5.52,3.65-11.06c.61-1.84,3.59-11.78,4-12.72a.08.08,0,0,1,.16.05c-.86,3.38-2,8.32-3,11.67s-2,6.6-3.07,9.89c-2,6.48-4.08,12.95-6,19.45-3.88,12.84-7.73,25.68-10.88,38.72-.88,3.66-1.76,7.31-2.57,11s-1.49,7.35-2.26,11a.09.09,0,0,1-.18,0C407.45,353.09,408.77,346.48,410.09,339.89Z" style="fill:#37474f"></path><path d="M434.7,374.24c2.17-12.53,4.78-25,7.67-37.37s6.14-24.81,9.71-37.08,7.51-24.42,11.75-36.48A152.64,152.64,0,0,0,469.21,246c1.3-5.85,2-12.18.6-18.08a29.41,29.41,0,0,0-1.35-4.4c0-.1.1-.18.15-.08,4.76,11.09,1.67,23.22-2,34.15-2,6-4.1,11.94-6.06,17.94q-3,9.24-5.77,18.55c-3.66,12.31-7.05,24.69-10.09,37.16s-5.74,25-8.12,37.64-4.4,25.37-6.43,38.09c-.27,1.65-.48,3.31-.69,5,0,.09-.16.09-.15,0C430.86,399.3,432.52,386.75,434.7,374.24Z" style="fill:#37474f"></path><path d="M435.5,169.08c-4.65,17-18.07,37.55-24.44,40.38-5.56,2.46-31.32-7.07-41-13.26-2.77-1.76,8.67-17.69,12-16.58,10.87,3.63,22.72,9,23.63,8.68,1.85-.63,13.41-14.8,21.82-24.32C436.89,153.3,437.35,162.3,435.5,169.08Z" style="fill:#eb9481"></path><path d="M351.62,181.82c-2.19-.92-19.05-1.46-19.05-5.11S354,174.07,354,174.07Z" style="fill:#eb9481"></path><path d="M384,182.24c-2.95-3.66-5.54-7.61-8.1-8.33-1.77-.51-20.87.32-23.85.14s-13.62.09-13.87,2.71c-.35,3.69,12.25,3.66,13.59,5.55,4.64,6.52,22.29,16.17,22.29,16.17Z" style="fill:#eb9481"></path><path d="M337.86,176.81a2.89,2.89,0,0,1,1.22-1.65,9,9,0,0,1,4.55-1.11,42,42,0,0,1,7-.06c.05,0,.05.08,0,.08-1.75,0-3.49.05-5.23.19a21.48,21.48,0,0,0-4.73.73,3.83,3.83,0,0,0-1.82,1.09,1.51,1.51,0,0,0-.36,1.41c.51,1.61,3.69,2.09,5.15,2.41,1.92.43,3.91.81,5.83,1.2.09,0,0,.15,0,.13-2-.4-4.11-.55-6.11-.91a10.06,10.06,0,0,1-4.69-1.71A1.84,1.84,0,0,1,337.86,176.81Z" style="fill:#263238"></path><path d="M384.69,180l-15.1,22.11S393,213.83,402,213.62c8.52-.2,11.61-1.46,14.3-4,1.66-1.57,11.15-15,18.88-37.2,6.49-18.66-3.11-15.91-11.67-5.58-4.27,5.15-17.91,20.5-18.6,20.45S384.69,180,384.69,180Z" style="fill:#3AD6AB"></path><path d="M389.34,183.58c-2.27,3.28-4.43,6.62-6.57,10-1.06,1.65-5,8.35-6.11,10.25-.05.07.16.2.21.13,1.18-1.68,5.45-8.37,6.47-10,2.08-3.39,4.14-6.79,6.1-10.25C389.47,183.58,389.38,183.52,389.34,183.58Z" style="fill:#263238"></path><path d="M397.42,213.06a19.75,19.75,0,0,0,4.53.56c8.52-.2,11.61-1.46,14.3-4,1.66-1.57,11.15-15,18.87-37.2a31.46,31.46,0,0,0,2.14-9.65c0-.21,0-.42,0-.6a5,5,0,0,0-.05-.57c0-.17-.05-.32-.08-.46a3.24,3.24,0,0,0-.93-1.82C431,166.37,406.16,199.81,397.42,213.06Z" style="opacity:0.1"></path><rect x="341.96" y="170.9" width="57.28" height="3.08" style="fill:#c7c7c7"></rect><polygon points="341.96 170.9 341.96 173.98 376.75 173.98 374.39 170.9 341.96 170.9" style="fill:#a6a6a6"></polygon><polygon points="371.87 173.98 333.56 173.98 313.63 140.13 351.93 140.13 371.87 173.98" style="fill:#c7c7c7"></polygon><path d="M344.18,157c.71,1.57.18,3.22-1.18,3.69a3.27,3.27,0,0,1-3.76-2c-.72-1.56-.19-3.21,1.17-3.68A3.28,3.28,0,0,1,344.18,157Z" style="fill:#fff"></path><path d="M474.15,233.28c-.14.15-60-.28-60.51-.9-.76-.87,13.42-65.55,19.64-73.5,1.33-1.7,5.67-2.13,9.35-1.63a16.19,16.19,0,0,1,2.83.61l.09,0a6.72,6.72,0,0,1,2.08,1.05c10.16,8.28,18.49,37,20.42,45.58C471.24,218.69,474.64,232.72,474.15,233.28Z" style="fill:#ebebeb"></path><path d="M446.19,158s-3.9,26.63-4.82,33.52-.05,43.35-.05,43.35l37.54,3.17s-7.86-24.21-7.94-25.75c0,0-6.23-29.09-12.65-41.11A36.39,36.39,0,0,0,446.19,158Z" style="fill:#3AD6AB"></path><path d="M433.69,158.47s-5.07,26.94-5.52,29.16-6.94,46-6.94,46l-9.4.2,5.1-20S427.83,162.61,433.69,158.47Z" style="fill:#3AD6AB"></path><path d="M435.81,167.08c2.86.33,8.26-3.64,9.76-7.85.1-.29-.75-3-1.62-6.39-.52-2.05-1.06-4.34-1.4-6.47-.06-.44-12.82,5.35-12.82,5.35a34.62,34.62,0,0,1,2.58,8,4.42,4.42,0,0,1,0,.88s0,.1,0,.15C432.35,162.42,432.75,166.73,435.81,167.08Z" style="fill:#eb9481"></path><path d="M432.35,160.57c0,.05,0,.1,0,.15a10.24,10.24,0,0,0,1.38-.14c7.82-1.42,8.34-11.58,8.34-14.13-2.31.71-12.35,5.27-12.35,5.27a34.29,34.29,0,0,1,2.58,8A4.42,4.42,0,0,1,432.35,160.57Z" style="fill:#263238"></path><path d="M442.41,129.42c2,4.57,1.27,18.61-1.73,22.1-4.34,5-12.31,6.49-16.82,1.07-4.37-5.25-3-23.53.4-26.79C429.3,121,439.38,122.67,442.41,129.42Z" style="fill:#eb9481"></path><path d="M430,139.36s.07,0,.07.09c-.08.94,0,2,.83,2.39,0,0,0,.06,0,.06C429.8,141.7,429.72,140.24,430,139.36Z" style="fill:#263238"></path><path d="M430.85,138.41c1.52,0,1.49,3,.07,3.06S429.56,138.45,430.85,138.41Z" style="fill:#263238"></path><path d="M424.61,139.32s-.07,0-.07.08c0,.95-.12,2-1,2.34,0,0,0,.06,0,0C424.62,141.66,424.78,140.21,424.61,139.32Z" style="fill:#263238"></path><path d="M423.78,138.32c-1.52-.14-1.68,2.92-.27,3S425.06,138.43,423.78,138.32Z" style="fill:#263238"></path><path d="M432.07,137a11.84,11.84,0,0,1-1.18-.43,2,2,0,0,1-1.12-.67.64.64,0,0,1,.11-.78,1.62,1.62,0,0,1,1.62-.15,2.38,2.38,0,0,1,1.35,1A.69.69,0,0,1,432.07,137Z" style="fill:#263238"></path><path d="M422.62,135.75c.42-.07.8-.2,1.21-.3a2,2,0,0,0,1.19-.55.65.65,0,0,0,0-.79,1.6,1.6,0,0,0-1.59-.32,2.38,2.38,0,0,0-1.45.89A.69.69,0,0,0,422.62,135.75Z" style="fill:#263238"></path><path d="M431.22,148.12c-.23.22-.46.53-.8.55a2.6,2.6,0,0,1-1-.25,0,0,0,0,0,0,.05,1.28,1.28,0,0,0,1.2.53,1,1,0,0,0,.75-.83C431.33,148.11,431.26,148.09,431.22,148.12Z" style="fill:#263238"></path><path d="M430.26,145.28a3.26,3.26,0,0,1-2.17,1.41,4.09,4.09,0,0,1-1.16,0l-.22,0-.21,0a.23.23,0,0,1-.19-.21h0s0-.06,0-.09h0v-.08c0-.73.07-1.84.07-1.84-.27.13-1.64.72-1.61.34a48.84,48.84,0,0,1,1.37-9.74.09.09,0,0,1,.17,0c-.1,3-.73,6-.87,9.09a5.27,5.27,0,0,1,1.52-.44c.11,0-.2,2.14-.16,2.46v0a4.47,4.47,0,0,0,3.35-1C430.24,145.14,430.32,145.2,430.26,145.28Z" style="fill:#263238"></path><path d="M427.36,146.36a3.89,3.89,0,0,0,1.52,1.21,1.7,1.7,0,0,0,1.05.07c.76-.19.78-.88.65-1.48a4.19,4.19,0,0,0-.33-.91A4.94,4.94,0,0,1,427.36,146.36Z" style="fill:#263238"></path><path d="M428.88,147.57a1.7,1.7,0,0,0,1.05.07c.76-.19.78-.88.65-1.48A1.79,1.79,0,0,0,428.88,147.57Z" style="fill:#ff9abb"></path><path d="M425,121.35l-.24,0,.07,0A.7.7,0,0,0,425,121.35Z" style="fill:#263238"></path><path d="M444,126.07a15.65,15.65,0,0,0-6.06-2.33l-.54-.12s-.06,0-.06-.06a.08.08,0,0,1,.08-.11l.29,0a1.85,1.85,0,0,1-.14-.14,33.22,33.22,0,0,1,3.24.79h0A7.64,7.64,0,0,1,444,126.07Z" style="fill:#263238"></path><path d="M424.87,121.22l0,0,0,0-.1-.05h.18Z" style="fill:#263238"></path><path d="M432.23,121.08h-.07l-.1,0h0l-.24-.19h0c-.37-.23-.74-.45-1.11-.65a5.26,5.26,0,0,1,.66.25l.58.22.35.28A.09.09,0,0,1,432.23,121.08Z" style="fill:#263238"></path><path d="M446.5,129.12c-.81-2.75-3.08-4.19-5.62-5a7.64,7.64,0,0,1,3.16,1.92,15.65,15.65,0,0,0-6.06-2.33l-.54-.12s-.06,0-.06-.06a.08.08,0,0,1,.08-.11l.29,0a1.85,1.85,0,0,1-.14-.14h0c-1.05-1.08-4-4-6-4.51-1.08-.28-1.34.27-.65,1.14h0c.34.21.67.44,1,.67l.35.28a.09.09,0,0,1,0,.15h-.07l-.1,0h0l-.24-.19h0c-.37-.23-.74-.45-1.11-.65a.05.05,0,0,0,0,0c-2.3-.84-4.82-1.49-6.32-1.06-1.92.56-.9,1.44.31,2.09a0,0,0,0,0,0,0h.22l0,0,0,0a.7.7,0,0,0,.17.09l-.24,0c-.23,0-.46-.06-.69-.08H424a3.91,3.91,0,0,0-2.44.83c-.92.84-.1,1.19,1.42,1.25-1.67,3.06-1.76,8-1.55,11.44.25-2.27,1.47-5.68,2.73-6s1.72,1.42,3.25,1.71,3-2.08,5.78-1.75,4.68,3.1,5.39,6.78c.82,4.28,1.74,6.71,4.43,6.43.88-.09,1.64-3,2-4.77v0A9.86,9.86,0,0,0,446.5,129.12ZM445.21,136h0l0,.05a1,1,0,0,1,.05-.16.44.44,0,0,0,0-.1.18.18,0,0,0,0-.05,11.72,11.72,0,0,0-.59-8.79,4.65,4.65,0,0,0-.6-.85,5.92,5.92,0,0,1,2.19,3.38A9,9,0,0,1,445.21,136Z" style="fill:#263238"></path><path d="M425,121.35l-.24,0c-.23,0-.46-.06-.69-.08h.84l0,0,0,0A.7.7,0,0,0,425,121.35Z" style="fill:#263238"></path><path d="M432.23,121.08h-.07l-.1,0h0l-.24-.19h0c-.17-.14-.31-.27-.45-.4a5,5,0,0,1-.4-.45c.34.21.67.44,1,.67l.35.28A.09.09,0,0,1,432.23,121.08Z" style="fill:#263238"></path><path d="M438,123.74l-.6-.18a.08.08,0,0,1,.08-.11l.29,0Z" style="fill:#263238"></path><path d="M444,126.07a15.65,15.65,0,0,0-6.06-2.33l-.54-.12s-.06,0-.06-.06a.08.08,0,0,1,.08-.11l.29,0a19.89,19.89,0,0,1,3.1.65h0A7.64,7.64,0,0,1,444,126.07Z" style="fill:#263238"></path><path d="M432.23,121.08h-.07l-.35-.22h0c-.37-.23-.74-.45-1.11-.65a.05.05,0,0,0,0,0,10.92,10.92,0,0,0-7.24-1.38,0,0,0,0,1,0-.09,9.26,9.26,0,0,1,7.55,1.28h0c.34.21.67.44,1,.67l.35.28A.09.09,0,0,1,432.23,121.08Z" style="fill:#263238"></path><path d="M425,121.35l-.24,0c-.23,0-.46-.06-.69-.08H424a6.92,6.92,0,0,0-2.91.51s0,0,0,0a5.66,5.66,0,0,1,3.61-.52,0,0,0,0,0,0,0h.12l.06,0,0,0A.7.7,0,0,0,425,121.35Z" style="fill:#263238"></path><path d="M440.37,141.2s2.64-4.78,4.77-3.88.48,7.59-1.8,8.72a2.41,2.41,0,0,1-3.36-.95Z" style="fill:#eb9481"></path><path d="M444.62,139.23s.05,0,0,.06a6.15,6.15,0,0,0-2.75,4.14,1.34,1.34,0,0,1,1.95-.57c.05,0,0,.1,0,.09a1.5,1.5,0,0,0-1.58.69,7.71,7.71,0,0,0-.64,1.4c-.06.16-.34.11-.3-.07v0C441,142.82,442.37,139.68,444.62,139.23Z" style="fill:#263238"></path><path d="M453.74,164.13C468.8,181,480.13,204.86,480,210.46c-.15,6.17-8,27.9-15.48,38.11-1,1.32-6.79.77-11.72-1.95-5.2-2.86-9.47-8-8.45-9.49,3.84-5.71,12.94-27.84,12.85-31.3-.07-3.2-7.53-22.78-10.37-34.11C444.09,160.84,446.73,156.26,453.74,164.13Z" style="fill:#eb9481"></path><path d="M473.66,246.9l-28.05-13.7s11-24.61,11.05-27.27-7.25-23.47-10-33.09S445,152.42,457,167s22.44,36.16,23.63,41.91S473.66,246.9,473.66,246.9Z" style="fill:#3AD6AB"></path><path d="M455.22,198.87q-.87-2.75-1.79-5.46-1-3.06-2.16-6.07c-.73-2-1.55-3.88-2.33-5.81-.06-.14-.3-.05-.25.09.93,2.59,1.8,5.21,2.67,7.82-.65-1.19-1.32-2.38-2-3.54-.06-.1-.21,0-.15.08.78,1.45,1.61,2.87,2.45,4.28l.63,1.89c1.17,3.51,2.31,7,3.32,10.61a12.74,12.74,0,0,1,.5,2.44,7.53,7.53,0,0,1-.41,2.79c-.51,1.65-1.09,3.28-1.67,4.9-1.17,3.26-2.44,6.48-3.78,9.67-1.52,3.63-3.25,7.22-5,10.76,0,0,1.05.28,1.08.3s.08,0,.05-.06a7.18,7.18,0,0,0-.68-.34c1.76-3.07,3.43-6.08,4.91-9.3s2.77-6.43,3.95-9.73c.6-1.69,1.19-3.4,1.72-5.12a9.66,9.66,0,0,0,.48-5C456.4,202.29,455.76,200.58,455.22,198.87Z" style="fill:#263238"></path><path d="M474.12,239a28.52,28.52,0,0,0-3.06-1.45c-.92-.43-1.82-.87-2.74-1.28l-6-2.72c-2-.89-4-1.79-6-2.66s-4-1.81-6-2.57a.07.07,0,0,0-.06.13c1.86,1.15,3.85,2.1,5.8,3.08s3.89,1.86,5.85,2.74,4,1.74,6.06,2.56c1,.4,2,.76,3,1.13a25.38,25.38,0,0,0,3.2,1.13C474.13,239.12,474.17,239,474.12,239Z" style="fill:#263238"></path></g></svg>